<?xml version="1.0" encoding="UTF-8" standalone="no"?>
<svg
   xmlns:dc="http://purl.org/dc/elements/1.1/"
   xmlns:cc="http://creativecommons.org/ns#"
   xmlns:rdf="http://www.w3.org/1999/02/22-rdf-syntax-ns#"
   xmlns:svg="http://www.w3.org/2000/svg"
   xmlns="http://www.w3.org/2000/svg"
   xmlns:sodipodi="http://sodipodi.sourceforge.net/DTD/sodipodi-0.dtd"
   xmlns:inkscape="http://www.inkscape.org/namespaces/inkscape"
   version="1.1"
   viewBox="0 0 654.24017 508.00699"
   fill="none"
   stroke="none"
   stroke-linecap="square"
   stroke-miterlimit="10"
   id="svg174"
   sodipodi:docname="flywheel.svg"
   width="654.24017"
   height="508.00699"
   inkscape:version="1.0.2 (e86c870879, 2021-01-15)">
  <metadata
     id="metadata180">
    <rdf:RDF>
      <cc:Work
         rdf:about="">
        <dc:format>image/svg+xml</dc:format>
        <dc:type
           rdf:resource="http://purl.org/dc/dcmitype/StillImage" />
      </cc:Work>
    </rdf:RDF>
  </metadata>
  <defs
     id="defs178" />
  <sodipodi:namedview
     pagecolor="#ffffff"
     bordercolor="#666666"
     borderopacity="1"
     objecttolerance="10"
     gridtolerance="10"
     guidetolerance="10"
     inkscape:pageopacity="0"
     inkscape:pageshadow="2"
     inkscape:window-width="1848"
     inkscape:window-height="1016"
     id="namedview176"
     showgrid="false"
     inkscape:zoom="1.3885417"
     inkscape:cx="342.23885"
     inkscape:cy="253.49997"
     inkscape:window-x="72"
     inkscape:window-y="27"
     inkscape:window-maximized="1"
     inkscape:current-layer="svg174" />
  <clipPath
     id="g12a9b3a53ae_0_1114.0">
    <path
       d="M 0,0 H 960 V 540 H 0 Z"
       clip-rule="nonzero"
       id="path2" />
  </clipPath>
  <g
     id="g516"
     transform="translate(-137.76115,-16.500033)">
    <path
       fill="#595959"
       d="m 660.7742,150.2781 v 0 c 0,-7.94156 29.0404,-14.37947 64.86359,-14.37947 35.82318,0 64.86352,6.43791 64.86352,14.37947 v 57.51788 c 0,7.94158 -29.04034,14.37949 -64.86352,14.37949 -35.82318,0 -64.86359,-6.43791 -64.86359,-14.37949 z"
       fill-rule="evenodd"
       id="path16" />
    <path
       fill="#000000"
       fill-opacity="0"
       d="m 790.5013,150.2781 v 0 c 0,7.94156 -29.04034,14.37947 -64.86352,14.37947 -35.82318,0 -64.8636,-6.43791 -64.8636,-14.37947"
       fill-rule="evenodd"
       id="path18" />
    <path
       fill="#000000"
       fill-opacity="0"
       d="m 660.7742,150.2781 v 0 c 0,-7.94156 29.0404,-14.37947 64.86359,-14.37947 35.82318,0 64.86352,6.43791 64.86352,14.37947 v 57.51788 c 0,7.94158 -29.04034,14.37949 -64.86352,14.37949 -35.82318,0 -64.86359,-6.43791 -64.86359,-14.37949 z"
       fill-rule="evenodd"
       id="path20" />
    <path
       stroke="#595959"
       stroke-width="3"
       stroke-linejoin="round"
       stroke-linecap="butt"
       d="m 790.5013,150.2781 v 0 c 0,7.94156 -29.04034,14.37947 -64.86352,14.37947 -35.82318,0 -64.8636,-6.43791 -64.8636,-14.37947"
       fill-rule="evenodd"
       id="path22" />
    <path
       stroke="#595959"
       stroke-width="3"
       stroke-linejoin="round"
       stroke-linecap="butt"
       d="m 660.7742,150.2781 v 0 c 0,-7.94156 29.0404,-14.37947 64.86359,-14.37947 35.82318,0 64.86352,6.43791 64.86352,14.37947 v 57.51788 c 0,7.94158 -29.04034,14.37949 -64.86352,14.37949 -35.82318,0 -64.86359,-6.43791 -64.86359,-14.37949 z"
       fill-rule="evenodd"
       id="path24" />
    <path
       fill="#595959"
       d="m 706.2354,182.93054 h -4.5 v 4.65625 h -2.34375 v -11.375 h 7.40625 v 1.89062 h -5.0625 v 2.9375 h 4.5 z m 5.50781,4.8125 q -1.85937,0 -3.03125,-1.14063 -1.17187,-1.14062 -1.17187,-3.04687 v -0.21875 q 0,-1.26563 0.48437,-2.26563 0.5,-1.01562 1.40625,-1.54687 0.90625,-0.54688 2.0625,-0.54688 1.73438,0 2.71875,1.09375 1,1.09375 1,3.09375 v 0.92188 h -5.375 q 0.10938,0.82812 0.65625,1.32812 0.54688,0.5 1.39063,0.5 1.3125,0 2.04687,-0.9375 l 1.10938,1.23438 q -0.51563,0.71875 -1.39063,1.125 -0.85937,0.40625 -1.90625,0.40625 z m -0.26562,-6.9375 q -0.67188,0 -1.09375,0.45312 -0.40625,0.45313 -0.53125,1.29688 h 3.14062 v -0.1875 q -0.0156,-0.75 -0.40625,-1.15625 -0.39062,-0.40625 -1.10937,-0.40625 z m 9.91406,6.78125 q -0.15625,-0.3125 -0.21875,-0.76563 -0.82812,0.92188 -2.14062,0.92188 -1.23438,0 -2.0625,-0.71875 -0.8125,-0.71875 -0.8125,-1.8125 0,-1.34375 1,-2.0625 1,-0.71875 2.875,-0.73438 h 1.04687 v -0.48437 q 0,-0.57813 -0.3125,-0.92188 -0.29687,-0.35937 -0.9375,-0.35937 -0.57812,0 -0.90625,0.28125 -0.3125,0.26562 -0.3125,0.73437 h -2.26562 q 0,-0.73437 0.45312,-1.35937 0.45313,-0.625 1.28125,-0.96875 0.82813,-0.35938 1.85938,-0.35938 1.5625,0 2.48437,0.78125 0.92188,0.78125 0.92188,2.20313 v 3.67187 q 0,1.20313 0.32812,1.8125 v 0.14063 z m -1.85937,-1.57813 q 0.5,0 0.92187,-0.21875 0.42188,-0.21875 0.625,-0.59375 v -1.45312 h -0.84375 q -1.70312,0 -1.8125,1.17187 v 0.125 q 0,0.42188 0.29688,0.70313 0.29687,0.26562 0.8125,0.26562 z m 8.25,-8.95312 v 2.07812 h 1.4375 v 1.65625 h -1.4375 v 4.21875 q 0,0.46875 0.17187,0.67188 0.1875,0.20312 0.6875,0.20312 0.375,0 0.67188,-0.0625 v 1.71875 q -0.67188,0.20313 -1.375,0.20313 -2.375,0 -2.42188,-2.40625 v -4.54688 h -1.23437 v -1.65625 h 1.23437 v -2.07812 z m 7.76562,9.67187 q -0.84375,1.01563 -2.3125,1.01563 -1.35937,0 -2.07812,-0.78125 -0.71875,-0.78125 -0.73438,-2.29688 v -5.53125 h 2.26563 v 5.45313 q 0,1.32812 1.20312,1.32812 1.14063,0 1.57813,-0.79687 v -5.98438 h 2.26562 v 8.45313 h -2.125 z m 8.64063,-5.48437 q -0.46875,-0.0625 -0.8125,-0.0625 -1.28125,0 -1.6875,0.875 v 5.53125 h -2.25 v -8.45313 h 2.125 l 0.0625,1 q 0.6875,-1.15625 1.89062,-1.15625 0.375,0 0.70313,0.0937 z m 4.82812,6.5 q -1.85937,0 -3.03125,-1.14063 -1.17187,-1.14062 -1.17187,-3.04687 v -0.21875 q 0,-1.26563 0.48437,-2.26563 0.5,-1.01562 1.40625,-1.54687 0.90625,-0.54688 2.0625,-0.54688 1.73438,0 2.71875,1.09375 1,1.09375 1,3.09375 v 0.92188 h -5.375 q 0.10938,0.82812 0.65625,1.32812 0.54688,0.5 1.39063,0.5 1.3125,0 2.04687,-0.9375 l 1.10938,1.23438 q -0.51563,0.71875 -1.39063,1.125 -0.85937,0.40625 -1.90625,0.40625 z m -0.26562,-6.9375 q -0.67188,0 -1.09375,0.45312 -0.40625,0.45313 -0.53125,1.29688 h 3.14062 v -0.1875 q -0.0156,-0.75 -0.40625,-1.15625 -0.39062,-0.40625 -1.10937,-0.40625 z"
       fill-rule="nonzero"
       id="path26" />
    <path
       fill="#595959"
       d="m 713.3643,203.60242 q 0,-0.67188 -0.46875,-1.01563 -0.46875,-0.35937 -1.6875,-0.75 -1.21875,-0.40625 -1.9375,-0.78125 -1.9375,-1.04687 -1.9375,-2.82812 0,-0.92188 0.51562,-1.64063 0.53125,-0.71875 1.5,-1.125 0.96875,-0.40625 2.1875,-0.40625 1.21875,0 2.17188,0.4375 0.95312,0.4375 1.46875,1.25 0.53125,0.79688 0.53125,1.82813 h -2.34375 q 0,-0.78125 -0.5,-1.21875 -0.48438,-0.4375 -1.375,-0.4375 -0.85938,0 -1.34375,0.375 -0.46875,0.35937 -0.46875,0.95312 0,0.54688 0.5625,0.92188 0.5625,0.375 1.64062,0.70312 2,0.60938 2.90625,1.5 0.92188,0.89063 0.92188,2.21875 0,1.46875 -1.125,2.3125 -1.10938,0.84375 -3,0.84375 -1.3125,0 -2.39063,-0.48437 -1.07812,-0.48438 -1.64062,-1.3125 -0.5625,-0.84375 -0.5625,-1.9375 h 2.34375 q 0,1.875 2.25,1.875 0.84375,0 1.3125,-0.32813 0.46875,-0.34375 0.46875,-0.95312 z m 6.49219,-7.54688 v 2.07813 h 1.4375 v 1.65625 h -1.4375 v 4.21875 q 0,0.46875 0.17187,0.67187 0.1875,0.20313 0.6875,0.20313 0.375,0 0.67188,-0.0625 v 1.71875 q -0.67188,0.20312 -1.375,0.20312 -2.375,0 -2.42188,-2.40625 v -4.54687 h -1.23437 v -1.65625 h 1.23437 v -2.07813 z m 2.10937,6.21875 q 0,-1.25 0.48438,-2.23437 0.48437,-0.98438 1.39062,-1.51563 0.92188,-0.54687 2.125,-0.54687 1.70313,0 2.78125,1.04687 1.09375,1.04688 1.21875,2.84375 l 0.0156,0.57813 q 0,1.9375 -1.09375,3.125 -1.07813,1.17187 -2.90625,1.17187 -1.82813,0 -2.92188,-1.17187 -1.09375,-1.17188 -1.09375,-3.1875 z m 2.26563,0.17188 q 0,1.20312 0.45312,1.84375 0.45313,0.625 1.29688,0.625 0.8125,0 1.26562,-0.625 0.46875,-0.625 0.46875,-2.01563 0,-1.17187 -0.46875,-1.8125 -0.45312,-0.65625 -1.28125,-0.65625 -0.82812,0 -1.28125,0.64063 -0.45312,0.64062 -0.45312,2 z m 11.89062,-2.20313 q -0.46875,-0.0625 -0.8125,-0.0625 -1.28125,0 -1.6875,0.875 v 5.53125 h -2.25 v -8.45312 h 2.125 l 0.0625,1 q 0.6875,-1.15625 1.89063,-1.15625 0.375,0 0.70312,0.0937 z m 4.82813,6.5 q -1.85938,0 -3.03125,-1.14062 -1.17188,-1.14063 -1.17188,-3.04688 v -0.21875 q 0,-1.26562 0.48438,-2.26562 0.5,-1.01563 1.40625,-1.54688 0.90625,-0.54687 2.0625,-0.54687 1.73437,0 2.71875,1.09375 1,1.09375 1,3.09375 v 0.92187 h -5.375 q 0.10937,0.82813 0.65625,1.32813 0.54687,0.5 1.39062,0.5 1.3125,0 2.04688,-0.9375 l 1.10937,1.23437 q -0.51562,0.71875 -1.39062,1.125 -0.85938,0.40625 -1.90625,0.40625 z m -0.26563,-6.9375 q -0.67187,0 -1.09375,0.45313 -0.40625,0.45312 -0.53125,1.29687 h 3.14063 v -0.1875 q -0.0156,-0.75 -0.40625,-1.15625 -0.39063,-0.40625 -1.10938,-0.40625 z"
       fill-rule="nonzero"
       id="path28" />
    <path
       fill="#ffffff"
       d="m 666.81354,153.42189 v 0 c 0,-7.04642 26.42114,-12.75867 59.01331,-12.75867 32.59216,0 59.0133,5.71225 59.0133,12.75867 v 51.03465 c 0,7.0464 -26.42114,12.75865 -59.0133,12.75865 -32.59217,0 -59.01331,-5.71224 -59.01331,-12.75865 z"
       fill-rule="evenodd"
       id="path30" />
    <path
       fill="#000000"
       fill-opacity="0"
       d="m 784.84015,153.42189 v 0 c 0,7.04642 -26.42114,12.75865 -59.01331,12.75865 -32.59216,0 -59.0133,-5.71223 -59.0133,-12.75865"
       fill-rule="evenodd"
       id="path32" />
    <path
       fill="#000000"
       fill-opacity="0"
       d="m 666.81354,153.42189 v 0 c 0,-7.04642 26.42114,-12.75867 59.01331,-12.75867 32.59216,0 59.0133,5.71225 59.0133,12.75867 v 51.03465 c 0,7.0464 -26.42114,12.75865 -59.0133,12.75865 -32.59217,0 -59.01331,-5.71224 -59.01331,-12.75865 z"
       fill-rule="evenodd"
       id="path34" />
    <path
       stroke="#595959"
       stroke-width="3"
       stroke-linejoin="round"
       stroke-linecap="butt"
       d="m 784.84015,153.42189 v 0 c 0,7.04642 -26.42114,12.75865 -59.01331,12.75865 -32.59216,0 -59.0133,-5.71223 -59.0133,-12.75865"
       fill-rule="evenodd"
       id="path36" />
    <path
       stroke="#595959"
       stroke-width="3"
       stroke-linejoin="round"
       stroke-linecap="butt"
       d="m 666.81354,153.42189 v 0 c 0,-7.04642 26.42114,-12.75867 59.01331,-12.75867 32.59216,0 59.0133,5.71225 59.0133,12.75867 v 51.03465 c 0,7.0464 -26.42114,12.75865 -59.0133,12.75865 -32.59217,0 -59.01331,-5.71224 -59.01331,-12.75865 z"
       fill-rule="evenodd"
       id="path38" />
    <path
       fill="#595959"
       d="m 709.66455,183.24355 h -3.75 v 3.875 h -1.95313 v -9.46875 h 6.17188 v 1.57812 h -4.21875 v 2.4375 h 3.75 z m 4.58698,4 q -1.54688,0 -2.53125,-0.9375 -0.96875,-0.95313 -0.96875,-2.53125 v -0.1875 q 0,-1.0625 0.40625,-1.89063 0.40625,-0.84375 1.15625,-1.29687 0.76562,-0.45313 1.71875,-0.45313 1.45312,0 2.28125,0.92188 0.82812,0.90625 0.82812,2.57812 v 0.76563 h -4.48437 q 0.0937,0.6875 0.54687,1.10937 0.46875,0.40625 1.17188,0.40625 1.07812,0 1.6875,-0.78125 l 0.92187,1.03125 q -0.42187,0.59375 -1.14062,0.9375 -0.71875,0.32813 -1.59375,0.32813 z m -0.21875,-5.78125 q -0.5625,0 -0.90625,0.39062 -0.34375,0.375 -0.45313,1.07813 h 2.625 v -0.15625 q -0.0156,-0.625 -0.34375,-0.96875 -0.32812,-0.34375 -0.92187,-0.34375 z m 8.25109,5.65625 q -0.125,-0.25 -0.1875,-0.625 -0.67187,0.75 -1.76562,0.75 -1.04688,0 -1.73438,-0.59375 -0.67187,-0.59375 -0.67187,-1.51563 0,-1.10937 0.82812,-1.70312 0.84375,-0.60938 2.40625,-0.60938 h 0.85938 v -0.40625 q 0,-0.48437 -0.25,-0.78125 -0.25,-0.29687 -0.78125,-0.29687 -0.48438,0 -0.75,0.23437 -0.26563,0.21875 -0.26563,0.625 h -1.89062 q 0,-0.60937 0.375,-1.125 0.39062,-0.53125 1.07812,-0.82812 0.6875,-0.29688 1.54688,-0.29688 1.29687,0 2.0625,0.65625 0.76562,0.65625 0.76562,1.84375 v 3.04688 q 0.0156,1 0.28125,1.51562 v 0.10938 z m -1.54687,-1.3125 q 0.40625,0 0.75,-0.17188 0.35937,-0.1875 0.53125,-0.5 v -1.21875 h -0.70313 q -1.40625,0 -1.5,0.98438 v 0.10937 q 0,0.34375 0.23438,0.57813 0.25,0.21875 0.6875,0.21875 z m 6.86438,-7.45313 v 1.71875 h 1.20312 v 1.39063 h -1.20312 v 3.51562 q 0,0.39063 0.15625,0.5625 0.15625,0.15625 0.57812,0.15625 0.3125,0 0.54688,-0.0469 v 1.4375 q -0.54688,0.15625 -1.14063,0.15625 -1.98437,0 -2.01562,-2 v -3.78125 h -1.03125 v -1.39063 h 1.03125 v -1.71875 z m 6.47223,8.04688 q -0.6875,0.84375 -1.92188,0.84375 -1.14062,0 -1.73437,-0.64063 -0.59375,-0.65625 -0.60938,-1.90625 v -4.625 h 1.89063 v 4.54688 q 0,1.10937 1,1.10937 0.95312,0 1.3125,-0.67187 v -4.98438 h 1.89062 v 7.04688 h -1.78125 z m 7.19238,-4.5625 q -0.375,-0.0469 -0.67187,-0.0469 -1.0625,0 -1.39063,0.71875 v 4.60938 h -1.89062 v -7.04688 h 1.78125 l 0.0469,0.84375 q 0.57813,-0.96875 1.57813,-0.96875 0.3125,0 0.57812,0.0781 z m 4.03455,5.40625 q -1.54688,0 -2.53125,-0.9375 -0.96875,-0.95313 -0.96875,-2.53125 v -0.1875 q 0,-1.0625 0.40625,-1.89063 0.40625,-0.84375 1.15625,-1.29687 0.76562,-0.45313 1.71875,-0.45313 1.45312,0 2.28125,0.92188 0.82812,0.90625 0.82812,2.57812 v 0.76563 h -4.48437 q 0.0937,0.6875 0.54687,1.10937 0.46875,0.40625 1.17188,0.40625 1.07812,0 1.6875,-0.78125 l 0.92187,1.03125 q -0.42187,0.59375 -1.14062,0.9375 -0.71875,0.32813 -1.59375,0.32813 z m -0.21875,-5.78125 q -0.5625,0 -0.90625,0.39062 -0.34375,0.375 -0.45313,1.07813 h 2.625 v -0.15625 q -0.0156,-0.625 -0.34375,-0.96875 -0.32812,-0.34375 -0.92187,-0.34375 z"
       fill-rule="nonzero"
       id="path40" />
    <path
       fill="#595959"
       d="m 715.60266,200.63417 q 0,-0.5625 -0.39062,-0.84375 -0.39063,-0.29688 -1.40625,-0.625 -1.01563,-0.32813 -1.60938,-0.65625 -1.625,-0.875 -1.625,-2.34375 0,-0.76563 0.4375,-1.35938 0.4375,-0.60937 1.25,-0.95312 0.8125,-0.34375 1.8125,-0.34375 1.01563,0 1.8125,0.375 0.79688,0.35937 1.23438,1.03125 0.4375,0.67187 0.4375,1.53125 h -1.95313 q 0,-0.65625 -0.40625,-1.01563 -0.40625,-0.35937 -1.15625,-0.35937 -0.71875,0 -1.125,0.3125 -0.39062,0.29687 -0.39062,0.78125 0,0.46875 0.46875,0.78125 0.46875,0.3125 1.375,0.57812 1.67187,0.5 2.42187,1.25 0.76563,0.73438 0.76563,1.84375 0,1.23438 -0.9375,1.9375 -0.92188,0.6875 -2.5,0.6875 -1.09375,0 -2,-0.39062 -0.89063,-0.40625 -1.35938,-1.09375 -0.46875,-0.70313 -0.46875,-1.625 h 1.95313 q 0,1.57812 1.875,1.57812 0.70312,0 1.09375,-0.28125 0.39062,-0.29687 0.39062,-0.79687 z m 5.39655,-6.28125 v 1.71875 h 1.20312 v 1.39062 h -1.20312 v 3.51563 q 0,0.39062 0.15625,0.5625 0.15625,0.15625 0.57812,0.15625 0.3125,0 0.54688,-0.0469 v 1.4375 q -0.54688,0.15625 -1.14063,0.15625 -1.98437,0 -2.01562,-2 v -3.78125 h -1.03125 v -1.39062 h 1.03125 v -1.71875 z m 1.76129,5.1875 q 0,-1.0625 0.40625,-1.875 0.40625,-0.82813 1.15625,-1.26563 0.76562,-0.45312 1.76562,-0.45312 1.4375,0 2.32813,0.875 0.90625,0.875 1.01562,2.35937 v 0.48438 q 0,1.625 -0.90625,2.60937 -0.89062,0.96875 -2.42187,0.96875 -1.51563,0 -2.4375,-0.96875 -0.90625,-0.98437 -0.90625,-2.65625 z m 1.89062,0.125 q 0,1 0.375,1.53125 0.375,0.53125 1.07813,0.53125 0.6875,0 1.0625,-0.51563 0.39062,-0.53125 0.39062,-1.67187 0,-0.98438 -0.39062,-1.53125 -0.375,-0.54688 -1.07813,-0.54688 -0.6875,0 -1.0625,0.54688 -0.375,0.53125 -0.375,1.65625 z m 9.89545,-1.82813 q -0.375,-0.0469 -0.67188,-0.0469 -1.0625,0 -1.39062,0.71875 v 4.60937 h -1.89063 v -7.04687 h 1.78125 l 0.0469,0.84375 q 0.57812,-0.96875 1.57812,-0.96875 0.3125,0 0.57813,0.0781 z m 4.03461,5.40625 q -1.54688,0 -2.53125,-0.9375 -0.96875,-0.95312 -0.96875,-2.53125 v -0.1875 q 0,-1.0625 0.40625,-1.89062 0.40625,-0.84375 1.15625,-1.29688 0.76562,-0.45312 1.71875,-0.45312 1.45312,0 2.28125,0.92187 0.82812,0.90625 0.82812,2.57813 v 0.76562 h -4.48437 q 0.0937,0.6875 0.54687,1.10938 0.46875,0.40625 1.17188,0.40625 1.07812,0 1.6875,-0.78125 l 0.92187,1.03125 q -0.42187,0.59375 -1.14062,0.9375 -0.71875,0.32812 -1.59375,0.32812 z m -0.21875,-5.78125 q -0.5625,0 -0.90625,0.39063 -0.34375,0.375 -0.45313,1.07812 h 2.625 v -0.15625 q -0.0156,-0.625 -0.34375,-0.96875 -0.32812,-0.34375 -0.92187,-0.34375 z"
       fill-rule="nonzero"
       id="path42" />
    <path
       fill="#ffffff"
       d="m 138.76115,146.78554 v 0 c 0,-2.53868 2.05801,-4.5967 4.59669,-4.5967 h 127.21607 c 1.21912,0 2.3883,0.4843 3.25033,1.34635 0.86207,0.86204 1.34635,2.03123 1.34635,3.25035 v 64.31842 c 0,2.5387 -2.05802,4.59669 -4.59668,4.59669 H 143.35784 v 0 c -2.53868,0 -4.59669,-2.05799 -4.59669,-4.59669 z"
       fill-rule="evenodd"
       id="path44" />
    <path
       stroke="#595959"
       stroke-width="2"
       stroke-linejoin="round"
       stroke-linecap="butt"
       d="m 138.76115,146.78554 v 0 c 0,-2.53868 2.05801,-4.5967 4.59669,-4.5967 h 127.21607 c 1.21912,0 2.3883,0.4843 3.25033,1.34635 0.86207,0.86204 1.34635,2.03123 1.34635,3.25035 v 64.31842 c 0,2.5387 -2.05802,4.59669 -4.59668,4.59669 H 143.35784 v 0 c -2.53868,0 -4.59669,-2.05799 -4.59669,-4.59669 z"
       fill-rule="evenodd"
       id="path46" />
    <path
       fill="#595959"
       d="M 184.95123,167.74475 V 158.276 h 3.32812 q 1.71875,0 2.60938,0.65625 0.89062,0.65625 0.89062,1.9375 0,0.6875 -0.35937,1.21875 -0.35938,0.53125 -1,0.78125 0.73437,0.1875 1.15625,0.75 0.42187,0.54687 0.42187,1.34375 0,1.35937 -0.875,2.0625 -0.875,0.70312 -2.48437,0.71875 z m 1.95312,-4.125 v 2.5625 h 1.67188 q 0.6875,0 1.07812,-0.32813 0.39063,-0.32812 0.39063,-0.92187 0,-1.29688 -1.34375,-1.3125 z m 0,-1.375 h 1.45313 q 1.46875,-0.0312 1.46875,-1.1875 0,-0.64063 -0.375,-0.92188 -0.375,-0.28125 -1.17188,-0.28125 h -1.375 z m 10.5058,5.5 q -0.125,-0.25 -0.1875,-0.625 -0.67187,0.75 -1.76562,0.75 -1.04688,0 -1.73438,-0.59375 -0.67187,-0.59375 -0.67187,-1.51563 0,-1.10937 0.82812,-1.70312 0.84375,-0.60938 2.40625,-0.60938 h 0.85938 v -0.40625 q 0,-0.48437 -0.25,-0.78125 -0.25,-0.29687 -0.78125,-0.29687 -0.48438,0 -0.75,0.23437 -0.26563,0.21875 -0.26563,0.625 h -1.89062 q 0,-0.60937 0.375,-1.125 0.39062,-0.53125 1.07812,-0.82812 0.6875,-0.29688 1.54688,-0.29688 1.29687,0 2.0625,0.65625 0.76562,0.65625 0.76562,1.84375 v 3.04688 q 0.0156,1 0.28125,1.51562 v 0.10938 z m -1.54687,-1.3125 q 0.40625,0 0.75,-0.17188 0.35937,-0.1875 0.53125,-0.5 v -1.21875 h -0.70313 q -1.40625,0 -1.5,0.98438 v 0.10937 q 0,0.34375 0.23438,0.57813 0.25,0.21875 0.6875,0.21875 z m 6.86439,-7.45313 v 1.71875 h 1.20313 v 1.39063 h -1.20313 v 3.51562 q 0,0.39063 0.15625,0.5625 0.15625,0.15625 0.57813,0.15625 0.3125,0 0.54687,-0.0469 v 1.4375 q -0.54687,0.15625 -1.14062,0.15625 -1.98438,0 -2.01563,-2 v -3.78125 h -1.03125 v -1.39063 h 1.03125 v -1.71875 z m 5.19095,7.375 q 0.51563,0 0.84375,-0.28125 0.32813,-0.28125 0.32813,-0.76562 h 1.76562 q 0,0.71875 -0.39062,1.3125 -0.375,0.59375 -1.04688,0.92187 -0.67187,0.32813 -1.46875,0.32813 -1.51562,0 -2.39062,-0.95313 -0.875,-0.96875 -0.875,-2.65625 v -0.125 q 0,-1.625 0.85937,-2.59375 0.875,-0.96875 2.39063,-0.96875 1.3125,0 2.10937,0.75 0.8125,0.75 0.8125,2 h -1.76562 q 0,-0.54687 -0.32813,-0.89062 -0.32812,-0.34375 -0.85937,-0.34375 -0.65625,0 -1,0.48437 -0.32813,0.48438 -0.32813,1.54688 v 0.20312 q 0,1.07813 0.32813,1.5625 0.32812,0.46875 1.01562,0.46875 z m 5.85666,-4.89062 q 0.75,-0.89063 1.875,-0.89063 2.29688,0 2.32813,2.65625 v 4.51563 h -1.89063 v -4.45313 q 0,-0.60937 -0.26562,-0.89062 -0.25,-0.29688 -0.85938,-0.29688 -0.82812,0 -1.1875,0.64063 v 5 h -1.89062 v -10 h 1.89062 z m 9.52704,7.09375 h -1.39063 l 3.48438,-10.28125 h 1.39062 z"
       fill-rule="nonzero"
       id="path48" />
    <path
       fill="#595959"
       d="m 192.73248,179.22913 q 0,1.39062 -0.5,2.45312 -0.48438,1.04688 -1.40625,1.625 -0.92188,0.5625 -2.10938,0.5625 -1.1875,0 -2.10937,-0.5625 -0.92188,-0.5625 -1.4375,-1.60937 -0.5,-1.0625 -0.5,-2.42188 v -0.46875 q 0,-1.40625 0.5,-2.46875 0.5,-1.0625 1.42187,-1.625 0.92188,-0.57812 2.10938,-0.57812 1.1875,0 2.10937,0.57812 0.92188,0.5625 1.42188,1.625 0.5,1.0625 0.5,2.45313 z m -1.96875,-0.4375 q 0,-1.48438 -0.54688,-2.25 -0.53125,-0.78125 -1.51562,-0.78125 -0.98438,0 -1.51563,0.76562 -0.53125,0.75 -0.54687,2.23438 v 0.46875 q 0,1.4375 0.53125,2.25 0.54687,0.79687 1.54687,0.79687 0.98438,0 1.5,-0.76562 0.53125,-0.78125 0.54688,-2.25 z m 9.60838,1.5 q 0,1.625 -0.75,2.60937 -0.73437,0.96875 -1.98437,0.96875 -1.0625,0 -1.71875,-0.73437 v 3.3125 h -1.89063 v -9.75 h 1.75 l 0.0625,0.6875 q 0.6875,-0.8125 1.78125,-0.8125 1.29688,0 2.01563,0.96875 0.73437,0.95312 0.73437,2.65625 z m -1.875,-0.14063 q 0,-0.98437 -0.35937,-1.51562 -0.34375,-0.53125 -1.01563,-0.53125 -0.875,0 -1.20312,0.67187 v 2.89063 q 0.34375,0.6875 1.21875,0.6875 1.35937,0 1.35937,-2.20313 z m 6.28484,3.71875 q -1.54688,0 -2.53125,-0.9375 -0.96875,-0.95312 -0.96875,-2.53125 v -0.1875 q 0,-1.0625 0.40625,-1.89062 0.40625,-0.84375 1.15625,-1.29688 0.76562,-0.45312 1.71875,-0.45312 1.45312,0 2.28125,0.92187 0.82812,0.90625 0.82812,2.57813 v 0.76562 h -4.48437 q 0.0937,0.6875 0.54687,1.10938 0.46875,0.40625 1.17188,0.40625 1.07812,0 1.6875,-0.78125 l 0.92187,1.03125 q -0.42187,0.59375 -1.14062,0.9375 -0.71875,0.32812 -1.59375,0.32812 z m -0.21875,-5.78125 q -0.5625,0 -0.90625,0.39063 -0.34375,0.375 -0.45313,1.07812 h 2.625 V 179.401 q -0.0156,-0.625 -0.34375,-0.96875 -0.32812,-0.34375 -0.92187,-0.34375 z m 8.1261,0.375 q -0.375,-0.0469 -0.67188,-0.0469 -1.0625,0 -1.39062,0.71875 v 4.60937 h -1.89063 v -7.04687 h 1.78125 l 0.0469,0.84375 q 0.57812,-0.96875 1.57812,-0.96875 0.3125,0 0.57813,0.0781 z m 4.79107,5.28125 q -0.125,-0.25 -0.1875,-0.625 -0.67187,0.75 -1.76562,0.75 -1.04688,0 -1.73438,-0.59375 -0.67187,-0.59375 -0.67187,-1.51562 0,-1.10938 0.82812,-1.70313 0.84375,-0.60937 2.40625,-0.60937 h 0.85938 v -0.40625 q 0,-0.48438 -0.25,-0.78125 -0.25,-0.29688 -0.78125,-0.29688 -0.48438,0 -0.75,0.23438 -0.26563,0.21875 -0.26563,0.625 h -1.89062 q 0,-0.60938 0.375,-1.125 0.39062,-0.53125 1.07812,-0.82813 0.6875,-0.29687 1.54688,-0.29687 1.29687,0 2.0625,0.65625 0.76562,0.65625 0.76562,1.84375 v 3.04687 q 0.0156,1 0.28125,1.51563 v 0.10937 z m -1.54687,-1.3125 q 0.40625,0 0.75,-0.17187 0.35937,-0.1875 0.53125,-0.5 v -1.21875 h -0.70313 q -1.40625,0 -1.5,0.98437 v 0.10938 q 0,0.34375 0.23438,0.57812 0.25,0.21875 0.6875,0.21875 z m 6.86439,-7.45312 v 1.71875 h 1.20313 v 1.39062 h -1.20313 v 3.51563 q 0,0.39062 0.15625,0.5625 0.15625,0.15625 0.57813,0.15625 0.3125,0 0.54687,-0.0469 v 1.4375 q -0.54687,0.15625 -1.14062,0.15625 -1.98438,0 -2.01563,-2 v -3.78125 h -1.03125 v -1.39062 h 1.03125 v -1.71875 z m 4.23783,8.76562 h -1.89063 v -7.04687 h 1.89063 z m -2,-8.85937 q 0,-0.42188 0.28125,-0.6875 0.29687,-0.28125 0.78125,-0.28125 0.48437,0 0.76562,0.28125 0.28125,0.26562 0.28125,0.6875 0,0.42187 -0.29687,0.70312 -0.28125,0.26563 -0.76563,0.26563 -0.46875,0 -0.76562,-0.26563 -0.28125,-0.28125 -0.28125,-0.70312 z m 3.25253,5.28125 q 0,-1.0625 0.40625,-1.875 0.40625,-0.82813 1.15625,-1.26563 0.76563,-0.45312 1.76563,-0.45312 1.4375,0 2.32812,0.875 0.90625,0.875 1.01563,2.35937 v 0.48438 q 0,1.625 -0.90625,2.60937 -0.89063,0.96875 -2.42188,0.96875 -1.51562,0 -2.4375,-0.96875 -0.90625,-0.98437 -0.90625,-2.65625 z m 1.89063,0.125 q 0,1 0.375,1.53125 0.375,0.53125 1.07812,0.53125 0.6875,0 1.0625,-0.51563 0.39063,-0.53125 0.39063,-1.67187 0,-0.98438 -0.39063,-1.53125 -0.375,-0.54688 -1.07812,-0.54688 -0.6875,0 -1.0625,0.54688 -0.375,0.53125 -0.375,1.65625 z m 7.67674,-3.59375 0.0625,0.8125 q 0.75,-0.9375 2.01562,-0.9375 1.125,0 1.67188,0.65625 0.54687,0.65625 0.5625,1.96875 v 4.54687 h -1.89063 v -4.5 q 0,-0.60937 -0.26562,-0.875 -0.25,-0.26562 -0.85938,-0.26562 -0.78125,0 -1.1875,0.67187 v 4.96875 h -1.875 v -7.04687 z m 9.80829,7.04687 q -0.125,-0.25 -0.1875,-0.625 -0.67188,0.75 -1.76563,0.75 -1.04687,0 -1.73437,-0.59375 -0.67188,-0.59375 -0.67188,-1.51562 0,-1.10938 0.82813,-1.70313 0.84375,-0.60937 2.40625,-0.60937 h 0.85937 v -0.40625 q 0,-0.48438 -0.25,-0.78125 -0.25,-0.29688 -0.78125,-0.29688 -0.48437,0 -0.75,0.23438 -0.26562,0.21875 -0.26562,0.625 h -1.89063 q 0,-0.60938 0.375,-1.125 0.39063,-0.53125 1.07813,-0.82813 0.6875,-0.29687 1.54687,-0.29687 1.29688,0 2.0625,0.65625 0.76563,0.65625 0.76563,1.84375 v 3.04687 q 0.0156,1 0.28125,1.51563 v 0.10937 z m -1.54688,-1.3125 q 0.40625,0 0.75,-0.17187 0.35938,-0.1875 0.53125,-0.5 v -1.21875 h -0.70312 q -1.40625,0 -1.5,0.98437 v 0.10938 q 0,0.34375 0.23437,0.57812 0.25,0.21875 0.6875,0.21875 z m 6.59877,1.3125 h -1.89062 v -10 h 1.89062 z"
       fill-rule="nonzero"
       id="path50" />
    <path
       fill="#595959"
       d="m 189.87311,197.26038 q 0,-0.5625 -0.39063,-0.84375 -0.39062,-0.29688 -1.40625,-0.625 -1.01562,-0.32813 -1.60937,-0.65625 -1.625,-0.875 -1.625,-2.34375 0,-0.76563 0.4375,-1.35938 0.4375,-0.60937 1.25,-0.95312 0.8125,-0.34375 1.8125,-0.34375 1.01562,0 1.8125,0.375 0.79687,0.35937 1.23437,1.03125 0.4375,0.67187 0.4375,1.53125 h -1.95312 q 0,-0.65625 -0.40625,-1.01563 -0.40625,-0.35937 -1.15625,-0.35937 -0.71875,0 -1.125,0.3125 -0.39063,0.29687 -0.39063,0.78125 0,0.46875 0.46875,0.78125 0.46875,0.3125 1.375,0.57812 1.67188,0.5 2.42188,1.25 0.76562,0.73438 0.76562,1.84375 0,1.23438 -0.9375,1.9375 -0.92187,0.6875 -2.5,0.6875 -1.09375,0 -2,-0.39062 -0.89062,-0.40625 -1.35937,-1.09375 -0.46875,-0.70313 -0.46875,-1.625 h 1.95312 q 0,1.57812 1.875,1.57812 0.70313,0 1.09375,-0.28125 0.39063,-0.29687 0.39063,-0.79687 z m 6.39655,2.60937 q -1.54688,0 -2.53125,-0.9375 -0.96875,-0.95312 -0.96875,-2.53125 v -0.1875 q 0,-1.0625 0.40625,-1.89062 0.40625,-0.84375 1.15625,-1.29688 0.76562,-0.45312 1.71875,-0.45312 1.45312,0 2.28125,0.92187 0.82812,0.90625 0.82812,2.57813 v 0.76562 h -4.48437 q 0.0937,0.6875 0.54687,1.10938 0.46875,0.40625 1.17188,0.40625 1.07812,0 1.6875,-0.78125 l 0.92187,1.03125 q -0.42187,0.59375 -1.14062,0.9375 -0.71875,0.32812 -1.59375,0.32812 z m -0.21875,-5.78125 q -0.5625,0 -0.90625,0.39063 -0.34375,0.375 -0.45313,1.07812 h 2.625 V 195.401 q -0.0156,-0.625 -0.34375,-0.96875 -0.32812,-0.34375 -0.92187,-0.34375 z m 8.12609,0.375 q -0.375,-0.0469 -0.67187,-0.0469 -1.0625,0 -1.39063,0.71875 v 4.60937 h -1.89062 v -7.04687 h 1.78125 l 0.0469,0.84375 q 0.57813,-0.96875 1.57813,-0.96875 0.3125,0 0.57812,0.0781 z m 3.66608,2.98438 1.3125,-4.75 h 1.95313 l -2.375,7.04687 h -1.79688 l -2.375,-7.04687 h 1.96875 z m 6.07941,2.29687 h -1.89063 v -7.04687 h 1.89063 z m -2,-8.85937 q 0,-0.42188 0.28125,-0.6875 0.29687,-0.28125 0.78125,-0.28125 0.48437,0 0.76562,0.28125 0.28125,0.26562 0.28125,0.6875 0,0.42187 -0.29687,0.70312 -0.28125,0.26563 -0.76563,0.26563 -0.46875,0 -0.76562,-0.26563 -0.28125,-0.28125 -0.28125,-0.70312 z m 6.48691,7.46875 q 0.51562,0 0.84375,-0.28125 0.32812,-0.28125 0.32812,-0.76563 h 1.76563 q 0,0.71875 -0.39063,1.3125 -0.375,0.59375 -1.04687,0.92188 -0.67188,0.32812 -1.46875,0.32812 -1.51563,0 -2.39063,-0.95312 -0.875,-0.96875 -0.875,-2.65625 v -0.125 q 0,-1.625 0.85938,-2.59375 0.875,-0.96875 2.39062,-0.96875 1.3125,0 2.10938,0.75 0.8125,0.75 0.8125,2 h -1.76563 q 0,-0.54688 -0.32812,-0.89063 -0.32813,-0.34375 -0.85938,-0.34375 -0.65625,0 -1,0.48438 -0.32812,0.48437 -0.32812,1.54687 v 0.20313 q 0,1.07812 0.32812,1.5625 0.32813,0.46875 1.01563,0.46875 z m 7.2629,1.51562 q -1.54687,0 -2.53125,-0.9375 -0.96875,-0.95312 -0.96875,-2.53125 v -0.1875 q 0,-1.0625 0.40625,-1.89062 0.40625,-0.84375 1.15625,-1.29688 0.76563,-0.45312 1.71875,-0.45312 1.45313,0 2.28125,0.92187 0.82813,0.90625 0.82813,2.57813 v 0.76562 h -4.48438 q 0.0937,0.6875 0.54688,1.10938 0.46875,0.40625 1.17187,0.40625 1.07813,0 1.6875,-0.78125 l 0.92188,1.03125 q -0.42188,0.59375 -1.14063,0.9375 -0.71875,0.32812 -1.59375,0.32812 z m -0.21875,-5.78125 q -0.5625,0 -0.90625,0.39063 -0.34375,0.375 -0.45312,1.07812 h 2.625 V 195.401 q -0.0156,-0.625 -0.34375,-0.96875 -0.32813,-0.34375 -0.92188,-0.34375 z m 7.98548,3.70313 q 0,-0.34375 -0.34375,-0.53125 -0.32813,-0.20313 -1.09375,-0.35938 -2.51563,-0.53125 -2.51563,-2.14062 0,-0.9375 0.78125,-1.5625 0.78125,-0.625 2.03125,-0.625 1.34375,0 2.14063,0.64062 0.8125,0.625 0.8125,1.625 h -1.875 q 0,-0.39062 -0.26563,-0.65625 -0.26562,-0.26562 -0.8125,-0.26562 -0.46875,0 -0.73437,0.21875 -0.26563,0.20312 -0.26563,0.54687 0,0.3125 0.29688,0.5 0.29687,0.1875 1,0.32813 0.70312,0.14062 1.1875,0.3125 1.48437,0.54687 1.48437,1.89062 0,0.96875 -0.82812,1.5625 -0.8125,0.59375 -2.125,0.59375 -0.89063,0 -1.57813,-0.3125 -0.6875,-0.3125 -1.07812,-0.85937 -0.39063,-0.54688 -0.39063,-1.1875 h 1.78125 q 0.0312,0.5 0.375,0.76562 0.34375,0.26563 0.92188,0.26563 0.54687,0 0.8125,-0.20313 0.28125,-0.20312 0.28125,-0.54687 z"
       fill-rule="nonzero"
       id="path52" />
    <path
       fill="#ffffff"
       d="m 146.38338,454.5919 v 0 c 0,-2.5387 2.058,-4.59671 4.59668,-4.59671 h 111.97197 c 1.21912,0 2.38831,0.48431 3.25037,1.34634 0.86203,0.86206 1.34634,2.03125 1.34634,3.25037 v 64.31839 c 0,2.5387 -2.05801,4.59674 -4.59671,4.59674 H 150.98006 c -2.53868,0 -4.59668,-2.05804 -4.59668,-4.59674 z"
       fill-rule="evenodd"
       id="path54" />
    <path
       stroke="#595959"
       stroke-width="2"
       stroke-linejoin="round"
       stroke-linecap="butt"
       d="m 146.38338,454.5919 v 0 c 0,-2.5387 2.058,-4.59671 4.59668,-4.59671 h 111.97197 c 1.21912,0 2.38831,0.48431 3.25037,1.34634 0.86203,0.86206 1.34634,2.03125 1.34634,3.25037 v 64.31839 c 0,2.5387 -2.05801,4.59674 -4.59671,4.59674 H 150.98006 c -2.53868,0 -4.59668,-2.05804 -4.59668,-4.59674 z"
       fill-rule="evenodd"
       id="path56" />
    <path
       fill="#595959"
       d="m 199.12032,482.08234 2.4375,6.85937 2.42187,-6.85937 h 2.5625 v 9.46875 h -1.95312 v -2.59375 l 0.1875,-4.46875 -2.54688,7.0625 h -1.34375 l -2.54687,-7.04688 0.1875,4.45313 v 2.59375 h -1.95313 v -9.46875 z m 8.70637,5.89062 q 0,-1.0625 0.40625,-1.875 0.40625,-0.82812 1.15625,-1.26562 0.76563,-0.45313 1.76563,-0.45313 1.4375,0 2.32812,0.875 0.90625,0.875 1.01563,2.35938 v 0.48437 q 0,1.625 -0.90625,2.60938 -0.89063,0.96875 -2.42188,0.96875 -1.51562,0 -2.4375,-0.96875 -0.90625,-0.98438 -0.90625,-2.65625 z m 1.89063,0.125 q 0,1 0.375,1.53125 0.375,0.53125 1.07812,0.53125 0.6875,0 1.0625,-0.51562 0.39063,-0.53125 0.39063,-1.67188 0,-0.98437 -0.39063,-1.53125 -0.375,-0.54687 -1.07812,-0.54687 -0.6875,0 -1.0625,0.54687 -0.375,0.53125 -0.375,1.65625 z m 5.64549,-0.125 q 0,-1.64062 0.73438,-2.60937 0.75,-0.98438 2.03125,-0.98438 1.03125,0 1.70312,0.76563 v -3.59375 h 1.89063 v 10 h -1.70313 l -0.0937,-0.75 q -0.70312,0.875 -1.8125,0.875 -1.23437,0 -2,-0.96875 -0.75,-0.98438 -0.75,-2.73438 z m 1.89063,0.14063 q 0,0.98437 0.34375,1.51562 0.34375,0.53125 1,0.53125 0.875,0 1.23437,-0.73437 v -2.78125 q -0.35937,-0.73438 -1.21875,-0.73438 -1.35937,0 -1.35937,2.20313 z m 9.16633,3.5625 q -1.54687,0 -2.53125,-0.9375 -0.96875,-0.95313 -0.96875,-2.53125 v -0.1875 q 0,-1.0625 0.40625,-1.89063 0.40625,-0.84375 1.15625,-1.29687 0.76563,-0.45313 1.71875,-0.45313 1.45313,0 2.28125,0.92188 0.82813,0.90625 0.82813,2.57812 v 0.76563 h -4.48438 q 0.0937,0.6875 0.54688,1.10937 0.46875,0.40625 1.17187,0.40625 1.07813,0 1.6875,-0.78125 l 0.92188,1.03125 q -0.42188,0.59375 -1.14063,0.9375 -0.71875,0.32813 -1.59375,0.32813 z m -0.21875,-5.78125 q -0.5625,0 -0.90625,0.39062 -0.34375,0.375 -0.45312,1.07813 h 2.625 v -0.15625 q -0.0156,-0.625 -0.34375,-0.96875 -0.32813,-0.34375 -0.92188,-0.34375 z m 6.15735,5.65625 h -1.89062 v -10 h 1.89062 z m 5.36191,-1.95313 q 0,-0.34375 -0.34375,-0.53125 -0.32812,-0.20312 -1.09375,-0.35937 -2.51562,-0.53125 -2.51562,-2.14063 0,-0.9375 0.78125,-1.5625 0.78125,-0.625 2.03125,-0.625 1.34375,0 2.14062,0.64063 0.8125,0.625 0.8125,1.625 h -1.875 q 0,-0.39063 -0.26562,-0.65625 -0.26563,-0.26563 -0.8125,-0.26563 -0.46875,0 -0.73438,0.21875 -0.26562,0.20313 -0.26562,0.54688 0,0.3125 0.29687,0.5 0.29688,0.1875 1,0.32812 0.70313,0.14063 1.1875,0.3125 1.48438,0.54688 1.48438,1.89063 0,0.96875 -0.82813,1.5625 -0.8125,0.59375 -2.125,0.59375 -0.89062,0 -1.57812,-0.3125 -0.6875,-0.3125 -1.07813,-0.85938 -0.39062,-0.54687 -0.39062,-1.1875 h 1.78125 q 0.0312,0.5 0.375,0.76563 0.34375,0.26562 0.92187,0.26562 0.54688,0 0.8125,-0.20312 0.28125,-0.20313 0.28125,-0.54688 z"
       fill-rule="nonzero"
       id="path58" />
    <path
       fill="#ffffff"
       d="m 152.40636,170.57274 h 20.40945 v 20.50394 h -20.40945 z"
       fill-rule="evenodd"
       id="path60" />
    <path
       stroke="#595959"
       stroke-width="2"
       stroke-linejoin="round"
       stroke-linecap="butt"
       d="m 152.40636,170.57274 h 20.40945 v 20.50394 h -20.40945 z"
       fill-rule="evenodd"
       id="path62" />
    <path
       fill="#ffffff"
       d="m 156.10199,169.97746 6.51968,-6.51968 6.51969,6.51968 h -3.25984 v 8.97638 h -6.51969 v -8.97638 z"
       fill-rule="evenodd"
       id="path64" />
    <path
       stroke="#595959"
       stroke-width="2"
       stroke-linejoin="round"
       stroke-linecap="butt"
       d="m 156.10199,169.97746 6.51968,-6.51968 6.51969,6.51968 h -3.25984 v 8.97638 h -6.51969 v -8.97638 z"
       fill-rule="evenodd"
       id="path66" />
    <path
       fill="#000000"
       fill-opacity="0"
       d="M 206.96605,449.99518 V 215.69598"
       fill-rule="evenodd"
       id="path68" />
    <path
       stroke="#595959"
       stroke-width="2"
       stroke-linejoin="round"
       stroke-linecap="butt"
       d="M 206.96605,449.9952 V 227.69596"
       fill-rule="evenodd"
       id="path70" />
    <path
       fill="#595959"
       stroke="#595959"
       stroke-width="2"
       stroke-linecap="butt"
       d="m 210.2695,227.69597 -3.30345,-9.0762 -3.30347,9.0762 z"
       fill-rule="evenodd"
       id="path72" />
    <path
       fill="#ffffff"
       d="m 160.16103,492.43484 v 0 c -0.0768,-3.68765 1.82355,-7.13257 4.97647,-9.02118 3.15292,-1.88861 7.07242,-1.92981 10.26398,-0.10791 3.19154,1.8219 5.16322,5.22611 5.16322,8.91458 h -10.20296 z"
       fill-rule="evenodd"
       id="path74" />
    <path
       stroke="#595959"
       stroke-width="2"
       stroke-linejoin="round"
       stroke-linecap="butt"
       d="m 160.16103,492.43484 v 0 c -0.0768,-3.68765 1.82355,-7.13257 4.97647,-9.02118 3.15292,-1.88861 7.07242,-1.92981 10.26398,-0.10791 3.19154,1.8219 5.16322,5.22611 5.16322,8.91458 h -10.20296 z"
       fill-rule="evenodd"
       id="path76" />
    <path
       fill="#ffffff"
       d="m 169.07109,480.67078 v 0 c 0,-0.71628 0.57785,-1.29694 1.29065,-1.29694 v 0 c 0.3423,0 0.67059,0.13663 0.91263,0.37986 0.24205,0.24322 0.37802,0.57312 0.37802,0.91708 v 0 c 0,0.71628 -0.57784,1.29694 -1.29065,1.29694 v 0 c -0.7128,0 -1.29065,-0.58066 -1.29065,-1.29694 z"
       fill-rule="evenodd"
       id="path78" />
    <path
       stroke="#595959"
       stroke-width="2"
       stroke-linejoin="round"
       stroke-linecap="butt"
       d="m 169.07109,480.67078 v 0 c 0,-0.71628 0.57785,-1.29694 1.29065,-1.29694 v 0 c 0.3423,0 0.67059,0.13663 0.91263,0.37986 0.24205,0.24322 0.37802,0.57312 0.37802,0.91708 v 0 c 0,0.71628 -0.57784,1.29694 -1.29065,1.29694 v 0 c -0.7128,0 -1.29065,-0.58066 -1.29065,-1.29694 z"
       fill-rule="evenodd"
       id="path80" />
    <path
       fill="#000000"
       fill-opacity="0"
       d="m 159.15117,495.2579 h 22.06339"
       fill-rule="evenodd"
       id="path82" />
    <path
       stroke="#595959"
       stroke-width="2"
       stroke-linejoin="round"
       stroke-linecap="butt"
       d="m 159.15117,495.2579 h 22.06339"
       fill-rule="evenodd"
       id="path84" />
    <path
       fill="#ffffff"
       d="m 665.39825,454.5919 v 0 c 0,-2.5387 2.05798,-4.59671 4.59668,-4.59671 h 111.97198 c 1.21912,0 2.38831,0.48431 3.25037,1.34634 0.862,0.86206 1.34631,2.03125 1.34631,3.25037 v 64.31839 c 0,2.5387 -2.05798,4.59674 -4.59668,4.59674 H 669.99493 c -2.5387,0 -4.59668,-2.05804 -4.59668,-4.59674 z"
       fill-rule="evenodd"
       id="path86" />
    <path
       stroke="#595959"
       stroke-width="2"
       stroke-linejoin="round"
       stroke-linecap="butt"
       d="m 665.39825,454.5919 v 0 c 0,-2.5387 2.05798,-4.59671 4.59668,-4.59671 h 111.97198 c 1.21912,0 2.38831,0.48431 3.25037,1.34634 0.862,0.86206 1.34631,2.03125 1.34631,3.25037 v 64.31839 c 0,2.5387 -2.05798,4.59674 -4.59668,4.59674 H 669.99493 c -2.5387,0 -4.59668,-2.05804 -4.59668,-4.59674 z"
       fill-rule="evenodd"
       id="path88" />
    <path
       fill="#595959"
       d="m 718.1352,474.08234 2.4375,6.85937 2.42188,-6.85937 h 2.5625 v 9.46875 h -1.95313 v -2.59375 l 0.1875,-4.46875 -2.54687,7.0625 h -1.34375 l -2.54688,-7.04688 0.1875,4.45313 v 2.59375 h -1.95312 v -9.46875 z m 8.70636,5.89062 q 0,-1.0625 0.40625,-1.875 0.40625,-0.82812 1.15625,-1.26562 0.76563,-0.45313 1.76563,-0.45313 1.4375,0 2.32812,0.875 0.90625,0.875 1.01563,2.35938 v 0.48437 q 0,1.625 -0.90625,2.60938 -0.89063,0.96875 -2.42188,0.96875 -1.51562,0 -2.4375,-0.96875 -0.90625,-0.98438 -0.90625,-2.65625 z m 1.89063,0.125 q 0,1 0.375,1.53125 0.375,0.53125 1.07812,0.53125 0.6875,0 1.0625,-0.51562 0.39063,-0.53125 0.39063,-1.67188 0,-0.98437 -0.39063,-1.53125 -0.375,-0.54687 -1.07812,-0.54687 -0.6875,0 -1.0625,0.54687 -0.375,0.53125 -0.375,1.65625 z m 5.6455,-0.125 q 0,-1.64062 0.73438,-2.60937 0.75,-0.98438 2.03125,-0.98438 1.03125,0 1.70312,0.76563 v -3.59375 h 1.89063 v 10 h -1.70313 l -0.0937,-0.75 q -0.70312,0.875 -1.8125,0.875 -1.23437,0 -2,-0.96875 -0.75,-0.98438 -0.75,-2.73438 z m 1.89063,0.14063 q 0,0.98437 0.34375,1.51562 0.34375,0.53125 1,0.53125 0.875,0 1.23437,-0.73437 v -2.78125 q -0.35937,-0.73438 -1.21875,-0.73438 -1.35937,0 -1.35937,2.20313 z m 9.16632,3.5625 q -1.54688,0 -2.53125,-0.9375 -0.96875,-0.95313 -0.96875,-2.53125 v -0.1875 q 0,-1.0625 0.40625,-1.89063 0.40625,-0.84375 1.15625,-1.29687 0.76562,-0.45313 1.71875,-0.45313 1.45312,0 2.28125,0.92188 0.82812,0.90625 0.82812,2.57812 v 0.76563 h -4.48437 q 0.0937,0.6875 0.54687,1.10937 0.46875,0.40625 1.17188,0.40625 1.07812,0 1.6875,-0.78125 l 0.92187,1.03125 q -0.42187,0.59375 -1.14062,0.9375 -0.71875,0.32813 -1.59375,0.32813 z m -0.21875,-5.78125 q -0.5625,0 -0.90625,0.39062 -0.34375,0.375 -0.45313,1.07813 h 2.625 v -0.15625 q -0.0156,-0.625 -0.34375,-0.96875 -0.32812,-0.34375 -0.92187,-0.34375 z m 6.15735,5.65625 h -1.89063 v -10 h 1.89063 z"
       fill-rule="nonzero"
       id="path90" />
    <path
       fill="#595959"
       d="m 722.72894,491.66046 h -2.90625 v 7.89062 h -1.95313 v -7.89062 h -2.85937 v -1.57813 h 7.71875 z m 4.50983,2.60937 q -0.375,-0.0469 -0.67188,-0.0469 -1.0625,0 -1.39062,0.71875 v 4.60937 h -1.89063 v -7.04687 h 1.78125 l 0.0469,0.84375 q 0.57812,-0.96875 1.57812,-0.96875 0.3125,0 0.57813,0.0781 z m 4.79107,5.28125 q -0.125,-0.25 -0.1875,-0.625 -0.67187,0.75 -1.76562,0.75 -1.04688,0 -1.73438,-0.59375 -0.67187,-0.59375 -0.67187,-1.51562 0,-1.10938 0.82812,-1.70313 0.84375,-0.60937 2.40625,-0.60937 h 0.85938 v -0.40625 q 0,-0.48438 -0.25,-0.78125 -0.25,-0.29688 -0.78125,-0.29688 -0.48438,0 -0.75,0.23438 -0.26563,0.21875 -0.26563,0.625 h -1.89062 q 0,-0.60938 0.375,-1.125 0.39062,-0.53125 1.07812,-0.82813 0.6875,-0.29687 1.54688,-0.29687 1.29687,0 2.0625,0.65625 0.76562,0.65625 0.76562,1.84375 v 3.04687 q 0.0156,1 0.28125,1.51563 v 0.10937 z m -1.54687,-1.3125 q 0.40625,0 0.75,-0.17187 0.35937,-0.1875 0.53125,-0.5 v -1.21875 h -0.70313 q -1.40625,0 -1.5,0.98437 v 0.10938 q 0,0.34375 0.23438,0.57812 0.25,0.21875 0.6875,0.21875 z m 6.59875,1.3125 h -1.89062 v -7.04687 h 1.89062 z m -2,-8.85937 q 0,-0.42188 0.28125,-0.6875 0.29688,-0.28125 0.78125,-0.28125 0.48438,0 0.76563,0.28125 0.28125,0.26562 0.28125,0.6875 0,0.42187 -0.29688,0.70312 -0.28125,0.26563 -0.76562,0.26563 -0.46875,0 -0.76563,-0.26563 -0.28125,-0.28125 -0.28125,-0.70312 z m 5.28382,1.8125 0.0625,0.8125 q 0.75,-0.9375 2.01562,-0.9375 1.125,0 1.67188,0.65625 0.54687,0.65625 0.5625,1.96875 v 4.54687 h -1.89063 v -4.5 q 0,-0.60937 -0.26562,-0.875 -0.25,-0.26562 -0.85938,-0.26562 -0.78125,0 -1.1875,0.67187 v 4.96875 h -1.875 v -7.04687 z m 7.71454,7.04687 h -1.89063 v -7.04687 h 1.89063 z m -2,-8.85937 q 0,-0.42188 0.28125,-0.6875 0.29687,-0.28125 0.78125,-0.28125 0.48437,0 0.76562,0.28125 0.28125,0.26562 0.28125,0.6875 0,0.42187 -0.29687,0.70312 -0.28125,0.26563 -0.76563,0.26563 -0.46875,0 -0.76562,-0.26563 -0.28125,-0.28125 -0.28125,-0.70312 z m 5.28375,1.8125 0.0625,0.8125 q 0.75,-0.9375 2.01562,-0.9375 1.125,0 1.67188,0.65625 0.54687,0.65625 0.5625,1.96875 v 4.54687 h -1.89063 v -4.5 q 0,-0.60937 -0.26562,-0.875 -0.25,-0.26562 -0.85938,-0.26562 -0.78125,0 -1.1875,0.67187 v 4.96875 h -1.875 v -7.04687 z m 5.46454,3.46875 q 0,-1.60938 0.76562,-2.59375 0.76563,-1 2.07813,-1 1.15625,0 1.8125,0.79687 l 0.0781,-0.67187 h 1.70313 v 6.8125 q 0,0.92187 -0.42188,1.60937 -0.42187,0.6875 -1.1875,1.03125 -0.76562,0.35938 -1.78125,0.35938 -0.76562,0 -1.51562,-0.3125 -0.73438,-0.29688 -1.10938,-0.78125 l 0.84375,-1.15625 q 0.70313,0.79687 1.70313,0.79687 0.75,0 1.15625,-0.40625 0.42187,-0.40625 0.42187,-1.14062 v -0.375 q -0.65625,0.73437 -1.71875,0.73437 -1.26562,0 -2.04687,-0.98437 -0.78125,-1 -0.78125,-2.64063 z m 1.875,0.14062 q 0,0.95313 0.375,1.5 0.39062,0.54688 1.0625,0.54688 0.85937,0 1.23437,-0.64063 v -2.96875 q -0.375,-0.64062 -1.21875,-0.64062 -0.67187,0 -1.0625,0.5625 -0.39062,0.54687 -0.39062,1.64062 z"
       fill-rule="nonzero"
       id="path92" />
    <path
       fill="#000000"
       fill-opacity="0"
       d="M 275.1706,178.94475 H 666.82416"
       fill-rule="evenodd"
       id="path94" />
    <path
       stroke="#595959"
       stroke-width="2"
       stroke-linejoin="round"
       stroke-linecap="butt"
       d="M 275.1706,178.94476 H 654.82416"
       fill-rule="evenodd"
       id="path96" />
    <path
       fill="#595959"
       stroke="#595959"
       stroke-width="2"
       stroke-linecap="butt"
       d="m 654.82416,182.24823 9.07617,-3.30347 -9.07617,-3.30346 z"
       fill-rule="evenodd"
       id="path98" />
    <path
       fill="#000000"
       fill-opacity="0"
       d="m 725.82684,217.2152 0.15747,232.7874"
       fill-rule="evenodd"
       id="path100" />
    <path
       stroke="#595959"
       stroke-width="2"
       stroke-linejoin="round"
       stroke-linecap="butt"
       d="m 725.82684,217.21521 0.14935,220.78738"
       fill-rule="evenodd"
       id="path102" />
    <path
       fill="#595959"
       stroke="#595959"
       stroke-width="2"
       stroke-linecap="butt"
       d="m 722.6727,438.00482 3.30963,9.07394 3.2973,-9.0784 z"
       fill-rule="evenodd"
       id="path104" />
    <path
       fill="#000000"
       fill-opacity="0"
       d="M 665.56445,486.7511 H 267.54873"
       fill-rule="evenodd"
       id="path106" />
    <path
       stroke="#595959"
       stroke-width="2"
       stroke-linejoin="round"
       stroke-linecap="butt"
       d="M 665.56445,486.7511 H 279.5487"
       fill-rule="evenodd"
       id="path108" />
    <path
       fill="#595959"
       stroke="#595959"
       stroke-width="2"
       stroke-linecap="butt"
       d="m 279.5487,483.44763 -9.07617,3.30347 9.07617,3.30346 z"
       fill-rule="evenodd"
       id="path110" />
    <path
       fill="#595959"
       d="m 691.50256,485.46884 v 0 c 6.73541,6.76978 6.83661,17.70926 0.22742,24.58667 l -4.78308,-4.64401 v 0 c 4.08856,-4.2547 4.02325,-11.0249 -0.14679,-15.21619 z"
       fill-rule="evenodd"
       id="path112" />
    <path
       stroke="#ffffff"
       stroke-width="1"
       stroke-linejoin="round"
       stroke-linecap="butt"
       d="m 691.50256,485.46884 v 0 c 6.73541,6.76978 6.83661,17.70926 0.22742,24.58667 l -4.78308,-4.64401 v 0 c 4.08856,-4.2547 4.02325,-11.0249 -0.14679,-15.21619 z"
       fill-rule="evenodd"
       id="path114" />
    <path
       fill="#595959"
       d="m 684.948,488.3931 v 0 c -6.73541,-6.76978 -6.83661,-17.70926 -0.22748,-24.58664 l 4.78308,4.64398 v 0 c -4.0885,4.2547 -4.02319,11.0249 0.14679,15.21622 z"
       fill-rule="evenodd"
       id="path116" />
    <path
       stroke="#ffffff"
       stroke-width="1"
       stroke-linejoin="round"
       stroke-linecap="butt"
       d="m 684.948,488.3931 v 0 c -6.73541,-6.76978 -6.83661,-17.70926 -0.22748,-24.58664 l 4.78308,4.64398 v 0 c -4.0885,4.2547 -4.02319,11.0249 0.14679,15.21622 z"
       fill-rule="evenodd"
       id="path118" />
    <path
       fill="#000000"
       fill-opacity="0"
       d="m 267.5349,467.04327 c 93.68854,0 138.18018,-65.77167 187.37704,-131.5433 49.19684,-65.77167 103.09891,-131.5433 206.19778,-131.5433"
       fill-rule="evenodd"
       id="path120" />
    <path
       stroke="#595959"
       stroke-width="3"
       stroke-linejoin="round"
       stroke-linecap="butt"
       d="m 285.515,466.19702 0.0494,-0.005 c 0.34137,-0.033 0.68206,-0.0669 1.02203,-0.10177 0.67999,-0.0697 1.35721,-0.14316 2.03165,-0.22031 1.34894,-0.15433 2.68686,-0.32343 4.014,-0.50711 2.6543,-0.36728 5.26551,-0.79282 7.83524,-1.27457 10.27893,-1.92688 19.89444,-4.75302 28.95181,-8.34988 18.11475,-7.19379 33.99692,-17.47061 48.48871,-29.8028 28.98362,-24.66436 52.40573,-57.5502 77.00415,-90.436 49.19684,-65.77167 103.09885,-131.54332 206.19778,-131.54332"
       fill-rule="evenodd"
       id="path122" />
    <path
       fill="#595959"
       stroke="#595959"
       stroke-width="3"
       stroke-linecap="butt"
       d="m 285.28204,461.2473 -13.36627,5.58975 13.83221,4.30969 z"
       fill-rule="evenodd"
       id="path124" />
    <path
       fill="#000000"
       fill-opacity="0"
       d="m 458.58734,83.51312 v 0"
       fill-rule="evenodd"
       id="path126" />
    <path
       stroke="#595959"
       stroke-width="1"
       stroke-linejoin="round"
       stroke-linecap="butt"
       d="m 458.58734,83.51312 v 0"
       fill-rule="evenodd"
       id="path128" />
    <path
       fill="#ffffff"
       fill-opacity="0.9382"
       d="m 406.73886,146.69965 v 0 c 0,-2.55283 2.06946,-4.62228 4.62228,-4.62228 h 90.69241 c 1.22593,0 2.40162,0.48698 3.26847,1.35383 0.86685,0.86685 1.35385,2.04254 1.35385,3.26845 v 64.67667 c 0,2.55283 -2.06949,4.6223 -4.62232,4.6223 h -90.69241 c -2.55282,0 -4.62228,-2.06947 -4.62228,-4.6223 z"
       fill-rule="evenodd"
       id="path130" />
    <path
       stroke="#595959"
       stroke-width="1"
       stroke-linejoin="round"
       stroke-linecap="butt"
       stroke-dasharray="1, 3"
       d="m 406.73886,146.69965 v 0 c 0,-2.55283 2.06946,-4.62228 4.62228,-4.62228 h 90.69241 c 1.22593,0 2.40162,0.48698 3.26847,1.35383 0.86685,0.86685 1.35385,2.04254 1.35385,3.26845 v 64.67667 c 0,2.55283 -2.06949,4.6223 -4.62232,4.6223 h -90.69241 c -2.55282,0 -4.62228,-2.06947 -4.62228,-4.6223 z"
       fill-rule="evenodd"
       id="path132" />
    <path
       fill="#999999"
       d="m 440.54504,171.96298 h -3.75 v 3.875 h -1.95313 v -9.46875 h 6.17188 v 1.57812 h -4.21875 v 2.4375 h 3.75 z m 4.58701,4 q -1.54688,0 -2.53125,-0.9375 -0.96875,-0.95313 -0.96875,-2.53125 v -0.1875 q 0,-1.0625 0.40625,-1.89063 0.40625,-0.84375 1.15625,-1.29687 0.76562,-0.45313 1.71875,-0.45313 1.45312,0 2.28125,0.92188 0.82812,0.90625 0.82812,2.57812 v 0.76563 h -4.48437 q 0.0937,0.6875 0.54687,1.10937 0.46875,0.40625 1.17188,0.40625 1.07812,0 1.6875,-0.78125 l 0.92187,1.03125 q -0.42187,0.59375 -1.14062,0.9375 -0.71875,0.32813 -1.59375,0.32813 z m -0.21875,-5.78125 q -0.5625,0 -0.90625,0.39062 -0.34375,0.375 -0.45313,1.07813 h 2.625 v -0.15625 q -0.0156,-0.625 -0.34375,-0.96875 -0.32812,-0.34375 -0.92187,-0.34375 z m 8.25109,5.65625 q -0.125,-0.25 -0.1875,-0.625 -0.67187,0.75 -1.76562,0.75 -1.04688,0 -1.73438,-0.59375 -0.67187,-0.59375 -0.67187,-1.51563 0,-1.10937 0.82812,-1.70312 0.84375,-0.60938 2.40625,-0.60938 h 0.85938 v -0.40625 q 0,-0.48437 -0.25,-0.78125 -0.25,-0.29687 -0.78125,-0.29687 -0.48438,0 -0.75,0.23437 -0.26563,0.21875 -0.26563,0.625 h -1.89062 q 0,-0.60937 0.375,-1.125 0.39062,-0.53125 1.07812,-0.82812 0.6875,-0.29688 1.54688,-0.29688 1.29687,0 2.0625,0.65625 0.76562,0.65625 0.76562,1.84375 v 3.04688 q 0.0156,1 0.28125,1.51562 v 0.10938 z m -1.54687,-1.3125 q 0.40625,0 0.75,-0.17188 0.35937,-0.1875 0.53125,-0.5 v -1.21875 h -0.70313 q -1.40625,0 -1.5,0.98438 v 0.10937 q 0,0.34375 0.23438,0.57813 0.25,0.21875 0.6875,0.21875 z m 6.86438,-7.45313 v 1.71875 h 1.20312 v 1.39063 h -1.20312 v 3.51562 q 0,0.39063 0.15625,0.5625 0.15625,0.15625 0.57812,0.15625 0.3125,0 0.54688,-0.0469 v 1.4375 q -0.54688,0.15625 -1.14063,0.15625 -1.98437,0 -2.01562,-2 v -3.78125 h -1.03125 v -1.39063 h 1.03125 v -1.71875 z m 6.4722,8.04688 q -0.6875,0.84375 -1.92188,0.84375 -1.14062,0 -1.73437,-0.64063 -0.59375,-0.65625 -0.60938,-1.90625 v -4.625 h 1.89063 v 4.54688 q 0,1.10937 1,1.10937 0.95312,0 1.3125,-0.67187 v -4.98438 h 1.89062 v 7.04688 h -1.78125 z m 7.19241,-4.5625 q -0.375,-0.0469 -0.67187,-0.0469 -1.0625,0 -1.39063,0.71875 v 4.60938 h -1.89062 v -7.04688 h 1.78125 l 0.0469,0.84375 q 0.57813,-0.96875 1.57813,-0.96875 0.3125,0 0.57812,0.0781 z m 4.03455,5.40625 q -1.54688,0 -2.53125,-0.9375 -0.96875,-0.95313 -0.96875,-2.53125 v -0.1875 q 0,-1.0625 0.40625,-1.89063 0.40625,-0.84375 1.15625,-1.29687 0.76562,-0.45313 1.71875,-0.45313 1.45312,0 2.28125,0.92188 0.82812,0.90625 0.82812,2.57812 v 0.76563 h -4.48437 q 0.0937,0.6875 0.54687,1.10937 0.46875,0.40625 1.17188,0.40625 1.07812,0 1.6875,-0.78125 l 0.92187,1.03125 q -0.42187,0.59375 -1.14062,0.9375 -0.71875,0.32813 -1.59375,0.32813 z m -0.21875,-5.78125 q -0.5625,0 -0.90625,0.39062 -0.34375,0.375 -0.45313,1.07813 h 2.625 v -0.15625 q -0.0156,-0.625 -0.34375,-0.96875 -0.32812,-0.34375 -0.92187,-0.34375 z"
       fill-rule="nonzero"
       id="path134" />
    <path
       fill="#999999"
       d="m 435.21683,188.49423 v 3.34375 h -1.95312 v -9.46875 h 3.70312 q 1.0625,0 1.875,0.39062 0.8125,0.39063 1.25,1.10938 0.4375,0.71875 0.4375,1.625 0,1.39062 -0.95312,2.20312 -0.95313,0.79688 -2.64063,0.79688 z m 0,-1.57813 h 1.75 q 0.76563,0 1.17188,-0.35937 0.40625,-0.375 0.40625,-1.04688 0,-0.6875 -0.40625,-1.10937 -0.40625,-0.4375 -1.125,-0.45313 h -1.79688 z m 8.50314,4.92188 h -1.89062 v -7.04688 h 1.89062 z m -2,-8.85938 q 0,-0.42187 0.28125,-0.6875 0.29688,-0.28125 0.78125,-0.28125 0.48438,0 0.76563,0.28125 0.28125,0.26563 0.28125,0.6875 0,0.42188 -0.29688,0.70313 -0.28125,0.26562 -0.76562,0.26562 -0.46875,0 -0.76563,-0.26562 -0.28125,-0.28125 -0.28125,-0.70313 z m 9.89316,5.40625 q 0,1.625 -0.75,2.60938 -0.73437,0.96875 -1.98437,0.96875 -1.0625,0 -1.71875,-0.73438 v 3.3125 h -1.89063 v -9.75 h 1.75 l 0.0625,0.6875 q 0.6875,-0.8125 1.78125,-0.8125 1.29688,0 2.01563,0.96875 0.73437,0.95313 0.73437,2.65625 z m -1.875,-0.14062 q 0,-0.98438 -0.35937,-1.51563 -0.34375,-0.53125 -1.01563,-0.53125 -0.875,0 -1.20312,0.67188 v 2.89062 q 0.34375,0.6875 1.21875,0.6875 1.35937,0 1.35937,-2.20312 z m 6.28485,3.71875 q -1.54687,0 -2.53125,-0.9375 -0.96875,-0.95313 -0.96875,-2.53125 v -0.1875 q 0,-1.0625 0.40625,-1.89063 0.40625,-0.84375 1.15625,-1.29687 0.76563,-0.45313 1.71875,-0.45313 1.45313,0 2.28125,0.92188 0.82813,0.90625 0.82813,2.57812 v 0.76563 h -4.48438 q 0.0937,0.6875 0.54688,1.10937 0.46875,0.40625 1.17187,0.40625 1.07813,0 1.6875,-0.78125 l 0.92188,1.03125 q -0.42188,0.59375 -1.14063,0.9375 -0.71875,0.32813 -1.59375,0.32813 z m -0.21875,-5.78125 q -0.5625,0 -0.90625,0.39062 -0.34375,0.375 -0.45312,1.07813 h 2.625 v -0.15625 q -0.0156,-0.625 -0.34375,-0.96875 -0.32813,-0.34375 -0.92188,-0.34375 z m 6.15735,5.65625 h -1.89062 v -10 h 1.89062 z m 3.53378,0 h -1.89062 v -7.04688 h 1.89062 z m -2,-8.85938 q 0,-0.42187 0.28125,-0.6875 0.29688,-0.28125 0.78125,-0.28125 0.48438,0 0.76563,0.28125 0.28125,0.26563 0.28125,0.6875 0,0.42188 -0.29688,0.70313 -0.28125,0.26562 -0.76562,0.26562 -0.46875,0 -0.76563,-0.26562 -0.28125,-0.28125 -0.28125,-0.70313 z m 5.28379,1.8125 0.0625,0.8125 q 0.75,-0.9375 2.01562,-0.9375 1.125,0 1.67188,0.65625 0.54687,0.65625 0.5625,1.96875 v 4.54688 h -1.89063 v -4.5 q 0,-0.60938 -0.26562,-0.875 -0.25,-0.26563 -0.85938,-0.26563 -0.78125,0 -1.1875,0.67188 v 4.96875 h -1.875 v -7.04688 z m 8.98016,7.17188 q -1.54687,0 -2.53125,-0.9375 -0.96875,-0.95313 -0.96875,-2.53125 v -0.1875 q 0,-1.0625 0.40625,-1.89063 0.40625,-0.84375 1.15625,-1.29687 0.76563,-0.45313 1.71875,-0.45313 1.45313,0 2.28125,0.92188 0.82813,0.90625 0.82813,2.57812 v 0.76563 h -4.48438 q 0.0937,0.6875 0.54688,1.10937 0.46875,0.40625 1.17187,0.40625 1.07813,0 1.6875,-0.78125 l 0.92188,1.03125 q -0.42188,0.59375 -1.14063,0.9375 -0.71875,0.32813 -1.59375,0.32813 z m -0.21875,-5.78125 q -0.5625,0 -0.90625,0.39062 -0.34375,0.375 -0.45312,1.07813 h 2.625 v -0.15625 q -0.0156,-0.625 -0.34375,-0.96875 -0.32813,-0.34375 -0.92188,-0.34375 z"
       fill-rule="nonzero"
       id="path136" />
    <path
       fill="#595959"
       d="m 395.9056,31.430714 v 0 c 0,-7.417561 27.12427,-13.430681 60.58371,-13.430681 33.45947,0 60.58368,6.013121 60.58368,13.430681 v 53.72272 c 0,7.417557 -27.12421,13.430679 -60.58368,13.430679 -33.45944,0 -60.58371,-6.013123 -60.58371,-13.430679 z"
       fill-rule="evenodd"
       id="path138" />
    <path
       fill="#000000"
       fill-opacity="0"
       d="m 517.073,31.430714 v 0 c 0,7.417561 -27.12421,13.430679 -60.58368,13.430679 -33.45944,0 -60.58371,-6.013119 -60.58371,-13.430679"
       fill-rule="evenodd"
       id="path140" />
    <path
       fill="#000000"
       fill-opacity="0"
       d="m 395.9056,31.430714 v 0 c 0,-7.417561 27.12427,-13.430681 60.58371,-13.430681 33.45947,0 60.58368,6.013121 60.58368,13.430681 v 53.72272 c 0,7.417557 -27.12421,13.430679 -60.58368,13.430679 -33.45944,0 -60.58371,-6.013123 -60.58371,-13.430679 z"
       fill-rule="evenodd"
       id="path142" />
    <path
       stroke="#595959"
       stroke-width="3"
       stroke-linejoin="round"
       stroke-linecap="butt"
       d="m 517.073,31.430714 v 0 c 0,7.417561 -27.12421,13.430679 -60.58368,13.430679 -33.45944,0 -60.58371,-6.013119 -60.58371,-13.430679"
       fill-rule="evenodd"
       id="path144" />
    <path
       stroke="#595959"
       stroke-width="3"
       stroke-linejoin="round"
       stroke-linecap="butt"
       d="m 395.9056,31.430714 v 0 c 0,-7.417561 27.12427,-13.430681 60.58371,-13.430681 33.45947,0 60.58368,6.013121 60.58368,13.430681 v 53.72272 c 0,7.417557 -27.12421,13.430679 -60.58368,13.430679 -33.45944,0 -60.58371,-6.013123 -60.58371,-13.430679 z"
       fill-rule="evenodd"
       id="path146" />
    <path
       fill="#595959"
       d="m 437.08698,61.711163 h -4.5 v 4.656254 h -2.34375 V 54.992413 h 7.40625 v 1.890625 h -5.0625 v 2.9375 h 4.5 z m 5.50781,4.812504 q -1.85937,0 -3.03125,-1.140625 -1.17187,-1.140625 -1.17187,-3.046879 v -0.21875 q 0,-1.265625 0.48437,-2.265625 0.5,-1.015625 1.40625,-1.546875 0.90625,-0.546875 2.0625,-0.546875 1.73438,0 2.71875,1.09375 1,1.09375 1,3.09375 v 0.921875 h -5.375 q 0.10938,0.828125 0.65625,1.328129 0.54688,0.5 1.39063,0.5 1.3125,0 2.04687,-0.937504 l 1.10938,1.234379 q -0.51563,0.71875 -1.39063,1.125 -0.85937,0.40625 -1.90625,0.40625 z m -0.26562,-6.937504 q -0.67188,0 -1.09375,0.453125 -0.40625,0.453125 -0.53125,1.296875 h 3.14062 v -0.1875 q -0.0156,-0.75 -0.40625,-1.15625 -0.39062,-0.40625 -1.10937,-0.40625 z m 9.91406,6.781254 q -0.15625,-0.3125 -0.21875,-0.765625 -0.82813,0.921875 -2.14063,0.921875 -1.23437,0 -2.0625,-0.71875 -0.8125,-0.71875 -0.8125,-1.812504 0,-1.34375 1,-2.0625 1,-0.71875 2.875,-0.734375 h 1.04688 v -0.484375 q 0,-0.578125 -0.3125,-0.921875 -0.29688,-0.359375 -0.9375,-0.359375 -0.57813,0 -0.90625,0.28125 -0.3125,0.265625 -0.3125,0.734375 h -2.26563 q 0,-0.734375 0.45313,-1.359375 0.45312,-0.625 1.28125,-0.96875 0.82812,-0.359375 1.85937,-0.359375 1.5625,0 2.48438,0.78125 0.92187,0.78125 0.92187,2.203125 v 3.671879 q 0,1.203125 0.32813,1.8125 v 0.140625 z m -1.85938,-1.578125 q 0.5,0 0.92188,-0.21875 0.42187,-0.21875 0.625,-0.593754 v -1.453125 h -0.84375 q -1.70313,0 -1.8125,1.171875 v 0.125 q 0,0.421879 0.29687,0.703129 0.29688,0.265625 0.8125,0.265625 z m 8.25,-8.953129 v 2.078125 h 1.4375 v 1.65625 h -1.4375 v 4.21875 q 0,0.468754 0.17188,0.671879 0.1875,0.203125 0.6875,0.203125 0.375,0 0.67187,-0.0625 v 1.71875 q -0.67187,0.203125 -1.375,0.203125 -2.375,0 -2.42187,-2.40625 v -4.546879 h -1.23438 v -1.65625 h 1.23438 v -2.078125 z m 7.76563,9.671879 q -0.84375,1.015625 -2.3125,1.015625 -1.35938,0 -2.07813,-0.78125 -0.71875,-0.78125 -0.73437,-2.296879 v -5.53125 h 2.26562 v 5.453125 q 0,1.328129 1.20313,1.328129 1.14062,0 1.57812,-0.796879 v -5.984375 h 2.26563 v 8.453129 h -2.125 z m 8.64062,-5.484379 q -0.46875,-0.0625 -0.8125,-0.0625 -1.28125,0 -1.6875,0.875 v 5.531254 h -2.25 v -8.453129 h 2.125 l 0.0625,1 q 0.6875,-1.15625 1.89063,-1.15625 0.375,0 0.70312,0.09375 z m 4.82813,6.500004 q -1.85938,0 -3.03125,-1.140625 -1.17188,-1.140625 -1.17188,-3.046879 v -0.21875 q 0,-1.265625 0.48438,-2.265625 0.5,-1.015625 1.40625,-1.546875 0.90625,-0.546875 2.0625,-0.546875 1.73437,0 2.71875,1.09375 1,1.09375 1,3.09375 v 0.921875 h -5.375 q 0.10937,0.828125 0.65625,1.328129 0.54687,0.5 1.39062,0.5 1.3125,0 2.04688,-0.937504 l 1.10937,1.234379 q -0.51562,0.71875 -1.39062,1.125 -0.85938,0.40625 -1.90625,0.40625 z m -0.26563,-6.937504 q -0.67187,0 -1.09375,0.453125 -0.40625,0.453125 -0.53125,1.296875 h 3.14063 v -0.1875 q -0.0156,-0.75 -0.40625,-1.15625 -0.39063,-0.40625 -1.10938,-0.40625 z"
       fill-rule="nonzero"
       id="path148" />
    <path
       fill="#595959"
       d="m 444.21588,82.38304 q 0,-0.671875 -0.46875,-1.015625 -0.46875,-0.359375 -1.6875,-0.75 -1.21875,-0.40625 -1.9375,-0.78125 -1.9375,-1.046875 -1.9375,-2.828125 0,-0.921875 0.51563,-1.640625 0.53125,-0.71875 1.5,-1.125 0.96875,-0.40625 2.1875,-0.40625 1.21875,0 2.17187,0.4375 0.95313,0.4375 1.46875,1.25 0.53125,0.796875 0.53125,1.828125 h -2.34375 q 0,-0.78125 -0.5,-1.21875 -0.48437,-0.4375 -1.375,-0.4375 -0.85937,0 -1.34375,0.375 -0.46875,0.359375 -0.46875,0.953125 0,0.546875 0.5625,0.921875 0.5625,0.375 1.64063,0.703125 2,0.609375 2.90625,1.5 0.92187,0.890625 0.92187,2.21875 0,1.46875 -1.125,2.3125 -1.10937,0.84375 -3,0.84375 -1.3125,0 -2.39062,-0.484375 -1.07813,-0.484375 -1.64063,-1.3125 -0.5625,-0.84375 -0.5625,-1.9375 h 2.34375 q 0,1.875 2.25,1.875 0.84375,0 1.3125,-0.328125 0.46875,-0.34375 0.46875,-0.953125 z m 6.49219,-7.546875 v 2.078125 h 1.4375 v 1.65625 h -1.4375 v 4.21875 q 0,0.46875 0.17187,0.671875 0.1875,0.203125 0.6875,0.203125 0.375,0 0.67188,-0.0625 v 1.71875 q -0.67188,0.203125 -1.375,0.203125 -2.375,0 -2.42188,-2.40625 V 78.57054 h -1.23437 v -1.65625 h 1.23437 v -2.078125 z m 2.10937,6.21875 q 0,-1.25 0.48438,-2.234375 0.48437,-0.984375 1.39062,-1.515625 0.92188,-0.546875 2.125,-0.546875 1.70313,0 2.78125,1.046875 1.09375,1.046875 1.21875,2.84375 l 0.0156,0.578125 q 0,1.9375 -1.09375,3.125 -1.07813,1.171875 -2.90625,1.171875 -1.82813,0 -2.92188,-1.171875 -1.09375,-1.171875 -1.09375,-3.1875 z m 2.26563,0.171875 q 0,1.203125 0.45312,1.84375 0.45313,0.625 1.29688,0.625 0.8125,0 1.26562,-0.625 0.46875,-0.625 0.46875,-2.015625 0,-1.171875 -0.46875,-1.8125 -0.45312,-0.65625 -1.28125,-0.65625 -0.82812,0 -1.28125,0.640625 -0.45312,0.640625 -0.45312,2 z m 11.89062,-2.203125 q -0.46875,-0.0625 -0.8125,-0.0625 -1.28125,0 -1.6875,0.875 v 5.53125 h -2.25 V 76.91429 h 2.125 l 0.0625,1 q 0.6875,-1.15625 1.89063,-1.15625 0.375,0 0.70312,0.09375 z m 4.82813,6.5 q -1.85938,0 -3.03125,-1.140625 -1.17188,-1.140625 -1.17188,-3.046875 v -0.21875 q 0,-1.265625 0.48438,-2.265625 0.5,-1.015625 1.40625,-1.546875 0.90625,-0.546875 2.0625,-0.546875 1.73437,0 2.71875,1.09375 1,1.09375 1,3.09375 v 0.921875 h -5.375 q 0.10937,0.828125 0.65625,1.328125 0.54687,0.5 1.39062,0.5 1.3125,0 2.04688,-0.9375 l 1.10937,1.234375 q -0.51562,0.71875 -1.39062,1.125 -0.85938,0.40625 -1.90625,0.40625 z m -0.26563,-6.9375 q -0.67187,0 -1.09375,0.453125 -0.40625,0.453125 -0.53125,1.296875 h 3.14063 v -0.1875 q -0.0156,-0.75 -0.40625,-1.15625 -0.39063,-0.40625 -1.10938,-0.40625 z"
       fill-rule="nonzero"
       id="path150" />
    <path
       fill="#ffffff"
       d="m 397.63113,32.054554 v 0 c 0,-7.046413 26.42117,-12.758661 59.01331,-12.758661 32.59213,0 59.01327,5.712248 59.01327,12.758661 v 51.03465 c 0,7.046417 -26.42114,12.758667 -59.01327,12.758667 -32.59214,0 -59.01331,-5.71225 -59.01331,-12.758667 z"
       fill-rule="evenodd"
       id="path152" />
    <path
       fill="#000000"
       fill-opacity="0"
       d="m 515.6577,32.054554 v 0 c 0,7.046417 -26.42114,12.758663 -59.01328,12.758663 -32.59213,0 -59.0133,-5.712246 -59.0133,-12.758663"
       fill-rule="evenodd"
       id="path154" />
    <path
       fill="#000000"
       fill-opacity="0"
       d="m 397.63113,32.054554 v 0 c 0,-7.046413 26.42117,-12.758661 59.01331,-12.758661 32.59213,0 59.01327,5.712248 59.01327,12.758661 v 51.03465 c 0,7.046417 -26.42114,12.758667 -59.01327,12.758667 -32.59214,0 -59.01331,-5.71225 -59.01331,-12.758667 z"
       fill-rule="evenodd"
       id="path156" />
    <path
       stroke="#595959"
       stroke-width="1"
       stroke-linejoin="round"
       stroke-linecap="butt"
       d="m 515.6577,32.054554 v 0 c 0,7.046417 -26.42114,12.758663 -59.01328,12.758663 -32.59213,0 -59.0133,-5.712246 -59.0133,-12.758663"
       fill-rule="evenodd"
       id="path158" />
    <path
       stroke="#595959"
       stroke-width="1"
       stroke-linejoin="round"
       stroke-linecap="butt"
       d="m 397.63113,32.054554 v 0 c 0,-7.046413 26.42117,-12.758661 59.01331,-12.758661 32.59213,0 59.01327,5.712248 59.01327,12.758661 v 51.03465 c 0,7.046417 -26.42114,12.758667 -59.01327,12.758667 -32.59214,0 -59.01331,-5.71225 -59.01331,-12.758667 z"
       fill-rule="evenodd"
       id="path160" />
    <path
       fill="#595959"
       d="m 433.093,61.37621 h -4.10937 v 3.359379 h 4.78125 v 1.015625 h -6.03125 V 56.28246 h 5.95312 v 1.015625 h -4.70312 v 3.046875 h 4.10937 z m 3.16891,-2.671875 0.0469,0.890625 q 0.79687,-1.015625 2.10937,-1.015625 2.23438,0 2.25,2.515625 v 4.656254 h -1.20312 V 61.09496 q -0.0156,-0.765625 -0.35938,-1.125 -0.32812,-0.375 -1.0625,-0.375 -0.57812,0 -1.03125,0.3125 -0.4375,0.3125 -0.6875,0.828125 v 5.015629 h -1.20312 v -7.046879 z m 7.85389,-1.703125 v 1.703125 h 1.3125 v 0.9375 h -1.3125 v 4.359379 q 0,0.421875 0.17187,0.640625 0.17188,0.21875 0.59375,0.21875 0.21875,0 0.57813,-0.07813 v 0.96875 q -0.46875,0.125 -0.92188,0.125 -0.8125,0 -1.21875,-0.484375 -0.40625,-0.484375 -0.40625,-1.390625 V 59.64183 h -1.28125 v -0.9375 h 1.28125 v -1.70312 z m 5.63504,8.875004 q -1.42188,0 -2.32813,-0.9375 -0.89062,-0.9375 -0.89062,-2.515629 v -0.21875 q 0,-1.046875 0.39062,-1.859375 0.40625,-0.828125 1.125,-1.296875 0.71875,-0.46875 1.5625,-0.46875 1.375,0 2.125,0.90625 0.76563,0.90625 0.76563,2.59375 v 0.5 h -4.76563 q 0.0156,1.03125 0.59375,1.671879 0.59375,0.640625 1.48438,0.640625 0.64062,0 1.07812,-0.25 0.45313,-0.265625 0.78125,-0.687504 l 0.73438,0.562504 q -0.875,1.359375 -2.65625,1.359375 z m -0.14063,-6.312504 q -0.73437,0 -1.23437,0.53125 -0.48438,0.53125 -0.60938,1.484375 h 3.53125 v -0.07813 q -0.0469,-0.921875 -0.5,-1.421875 -0.4375,-0.515625 -1.1875,-0.515625 z m 7.68604,0.21875 q -0.26563,-0.03125 -0.59375,-0.03125 -1.1875,0 -1.60938,1 v 5.000004 H 453.89 v -7.046879 h 1.17187 l 0.0312,0.8125 q 0.57813,-0.9375 1.67188,-0.9375 0.34375,0 0.53125,0.09375 z m 7.05685,2.53125 q 0,1.609375 -0.73437,2.593754 -0.73438,0.96875 -2,0.96875 -1.28125,0 -2.01563,-0.8125 v 3.390625 h -1.20312 v -9.750004 h 1.10937 l 0.0469,0.78125 q 0.75,-0.90625 2.04687,-0.90625 1.26563,0 2,0.953125 0.75,0.953125 0.75,2.671875 z m -1.20312,-0.140625 q 0,-1.1875 -0.51563,-1.875 -0.5,-0.703125 -1.39062,-0.703125 -1.09375,0 -1.64063,0.96875 v 3.375 q 0.54688,0.953129 1.65625,0.953129 0.875,0 1.375,-0.671875 0.51563,-0.687504 0.51563,-2.046879 z m 6.13379,-2.390625 q -0.26563,-0.03125 -0.59375,-0.03125 -1.1875,0 -1.60938,1 v 5.000004 h -1.20312 v -7.046879 h 1.17187 l 0.0312,0.8125 q 0.57813,-0.9375 1.67188,-0.9375 0.34375,0 0.53125,0.09375 z m 2.41622,5.968754 h -1.20312 v -7.046879 h 1.20312 z m -1.29687,-8.906254 q 0,-0.296875 0.17187,-0.5 0.1875,-0.203125 0.53125,-0.203125 0.35938,0 0.53125,0.203125 0.1875,0.203125 0.1875,0.5 0,0.296875 -0.1875,0.5 -0.17187,0.1875 -0.53125,0.1875 -0.34375,0 -0.53125,-0.1875 -0.17187,-0.203125 -0.17187,-0.5 z m 7.32815,7.03125 q 0,-0.484375 -0.375,-0.75 -0.35937,-0.265625 -1.28125,-0.453125 -0.90625,-0.203125 -1.45312,-0.46875 -0.53125,-0.28125 -0.79688,-0.65625 -0.25,-0.390625 -0.25,-0.90625 0,-0.859375 0.73438,-1.453125 0.73437,-0.609375 1.875,-0.609375 1.1875,0 1.9375,0.625 0.75,0.609375 0.75,1.578125 h -1.21875 q 0,-0.5 -0.42188,-0.859375 -0.42187,-0.359375 -1.04687,-0.359375 -0.65625,0 -1.03125,0.296875 -0.375,0.28125 -0.375,0.75 0,0.421875 0.34375,0.65625 0.34375,0.21875 1.25,0.421875 0.90625,0.203125 1.45312,0.484375 0.5625,0.265625 0.82813,0.671875 0.28125,0.390625 0.28125,0.953125 0,0.937504 -0.76563,1.515629 -0.75,0.5625 -1.95312,0.5625 -0.84375,0 -1.5,-0.296875 -0.64063,-0.296875 -1.01563,-0.828125 -0.35937,-0.546875 -0.35937,-1.171879 h 1.20312 q 0.0312,0.609379 0.48438,0.968754 0.45312,0.34375 1.1875,0.34375 0.6875,0 1.09375,-0.265625 0.42187,-0.28125 0.42187,-0.750004 z m 5.68482,2.000004 q -1.42188,0 -2.32813,-0.9375 -0.89062,-0.9375 -0.89062,-2.515629 v -0.21875 q 0,-1.046875 0.39062,-1.859375 0.40625,-0.828125 1.125,-1.296875 0.71875,-0.46875 1.5625,-0.46875 1.375,0 2.125,0.90625 0.76563,0.90625 0.76563,2.59375 v 0.5 h -4.76563 q 0.0156,1.03125 0.59375,1.671879 0.59375,0.640625 1.48438,0.640625 0.64062,0 1.07812,-0.25 0.45313,-0.265625 0.78125,-0.687504 l 0.73438,0.562504 q -0.875,1.359375 -2.65625,1.359375 z m -0.14063,-6.312504 q -0.73437,0 -1.23437,0.53125 -0.48438,0.53125 -0.60938,1.484375 h 3.53125 v -0.07813 q -0.0469,-0.921875 -0.5,-1.421875 -0.4375,-0.515625 -1.1875,-0.515625 z"
       fill-rule="nonzero"
       id="path162" />
    <path
       fill="#595959"
       d="m 443.9415,81.75121 v -9.46875 h 2.6875 q 1.23438,0 2.17188,0.546875 0.95312,0.546875 1.46875,1.5625 0.53125,1 0.53125,2.296875 v 0.609375 q 0,1.34375 -0.51563,2.359375 -0.51562,1 -1.48437,1.546875 -0.95313,0.53125 -2.23438,0.546875 z m 1.25,-8.453125 v 7.4375 h 1.3125 q 1.45313,0 2.25,-0.890625 0.8125,-0.90625 0.8125,-2.578125 V 76.71996 q 0,-1.609375 -0.76562,-2.5 -0.75,-0.90625 -2.14063,-0.921875 z m 11.66196,8.453125 q -0.10938,-0.203125 -0.17188,-0.734375 -0.84375,0.859375 -2.01562,0.859375 -1.03125,0 -1.70313,-0.578125 -0.67187,-0.59375 -0.67187,-1.5 0,-1.09375 0.82812,-1.703125 0.84375,-0.609375 2.35938,-0.609375 h 1.17187 v -0.5625 q 0,-0.625 -0.375,-1 -0.375,-0.375 -1.10937,-0.375 -0.64063,0 -1.07813,0.328125 -0.4375,0.328125 -0.4375,0.78125 h -1.20312 q 0,-0.515625 0.35937,-1 0.375,-0.5 1.01563,-0.78125 0.65625,-0.296875 1.42187,-0.296875 1.21875,0 1.90625,0.609375 0.6875,0.609375 0.71875,1.671875 v 3.25 q 0,0.96875 0.23438,1.53125 v 0.109375 z m -2,-0.921875 q 0.5625,0 1.0625,-0.28125 0.51562,-0.296875 0.73437,-0.765625 v -1.453125 h -0.9375 q -2.21875,0 -2.21875,1.296875 0,0.5625 0.375,0.890625 0.39063,0.3125 0.98438,0.3125 z m 6.531,-7.828125 v 1.703125 h 1.3125 v 0.9375 h -1.3125 v 4.359375 q 0,0.421875 0.17188,0.640625 0.17187,0.21875 0.59375,0.21875 0.21875,0 0.57812,-0.07813 v 0.96875 q -0.46875,0.125 -0.92187,0.125 -0.8125,0 -1.21875,-0.484375 -0.40625,-0.484375 -0.40625,-1.390625 V 75.64183 h -1.28125 v -0.9375 h 1.28125 v -1.70312 z m 7.07254,8.75 q -0.10937,-0.203125 -0.17187,-0.734375 -0.84375,0.859375 -2.01563,0.859375 -1.03125,0 -1.70312,-0.578125 -0.67188,-0.59375 -0.67188,-1.5 0,-1.09375 0.82813,-1.703125 0.84375,-0.609375 2.35937,-0.609375 h 1.17188 v -0.5625 q 0,-0.625 -0.375,-1 -0.375,-0.375 -1.10938,-0.375 -0.64062,0 -1.07812,0.328125 -0.4375,0.328125 -0.4375,0.78125 h -1.20313 q 0,-0.515625 0.35938,-1 0.375,-0.5 1.01562,-0.78125 0.65625,-0.296875 1.42188,-0.296875 1.21875,0 1.90625,0.609375 0.6875,0.609375 0.71875,1.671875 v 3.25 q 0,0.96875 0.23437,1.53125 v 0.109375 z m -2,-0.921875 q 0.5625,0 1.0625,-0.28125 0.51563,-0.296875 0.73438,-0.765625 v -1.453125 h -0.9375 q -2.21875,0 -2.21875,1.296875 0,0.5625 0.375,0.890625 0.39062,0.3125 0.98437,0.3125 z"
       fill-rule="nonzero"
       id="path164" />
    <path
       fill="#000000"
       fill-opacity="0"
       d="m 456.64444,95.84787 0.063,46.23622"
       fill-rule="evenodd"
       id="path166" />
    <path
       stroke="#595959"
       stroke-width="2"
       stroke-linejoin="round"
       stroke-linecap="butt"
       d="m 456.64444,95.84787 0.0466,34.23624"
       fill-rule="evenodd"
       id="path168" />
    <path
       fill="#595959"
       stroke="#595959"
       stroke-width="2"
       stroke-linecap="butt"
       d="m 453.38763,130.08861 3.31583,9.07169 3.29107,-9.08069 z"
       fill-rule="evenodd"
       id="path170" />
  </g>
</svg>
